/* XPM */
static const char * application_xpm[] = {
"32 32 4 1",
"  c lightgrey s Background",
". c black s Foreground",
"X c darkgrey s BottomShadow",
"o c white s TopShadow",
"  .................             ",
" ..                .            ",
".XX.                .           ",
".XX. ooooooooooooo  .           ",
".XX.  XXXXXXXXXXXXX .           ",
".XX. oooooooooooo... .          ",
"....  XXXXXXXXXX.o . .          ",
"   . oooooo.oooo.XXX. ....      ",
"   .  XXXX.o....     ...o .     ",
"   . oooo.o  X   ...    X .     ",
"   .  XXX.o X  ..XXX..X  X.     ",
"   .  ooo..X  .XX   XX.   .     ",
"    .  XXX. o.X      XX.X  .    ",
"    .  .... .XX  ...   X.  ..   ",
"     . .o X .X  ..o.  oX. Xoo.  ",
"     ..o  X .X   ...   o. X  .  ",
"      ..X X  .X       o.X X X.  ",
"       .XXX  .X   o ooo.  XXX.  ",
"        ..    ..    o..   ...   ",
"         .X   o .....   XX.     ",
"         .oX           X  .     ",
"         .o X        ..    .    ",
"        .o  X...XXXX.XX.oo .    ",
"         . X.ooo.o  .oo... .    ",
"         ...XXXX.   .XXXX..     ",
"        .  ooooo.o .ooooo  .    ",
"        . XXXXXXX...XXXXXX.     ",
"       .                  .     ",
"       .                 .      ",
"      ....................      ",
"                                ",
"                                "};
