/* XPM */
static const char * binary_xpm[] = {
"32 32 4 1",
"  c lightgrey s Background",
". c black s Foreground",
"X c darkgrey s BottomShadow",
"o c white s TopShadow",
"  .................             ",
" ..                .            ",
".XX.                .           ",
".XX. ooooooooooooooo .          ",
".XX.  XXXXXXXXXXXXXXX .         ",
".XX. ooo......................  ",
"....  XX.oooooooooooooooooooX.  ",
"   . ooo.o                  X.  ",
"   .  XX.o  ..  ..  ..  ..  X.  ",
"   . ooo.o .  .  . .  .  .  X.  ",
"   .  XX.o .  .  . .  .  .  X.  ",
"   .  oo.o .  .  . .  .  .  X.  ",
"    . XX.o .  .  . .  .  .  X.  ",
"    .  o.o  ..  ... ..  ... X.  ",
"     .  .o                  X.  ",
"     .  .o  ..  ..  ..  ..  X.  ",
"      . .o   .   . .  .  .  X.  ",
"      . .o   .   . .  .  .  X.  ",
"       ..o   .   . .  .  .  X.  ",
"       ..o   .   . .  .  .  X.  ",
"        .o  ... ... ..  ... X.  ",
"        .o                  X.  ",
"        .oXXXXXXXXXXXXXXXXXXX.  ",
"        ......................  ",
"         . XXXXXXXXXXXXXXX .    ",
"        . ooooooooooooooo  .    ",
"        . XXXXXXXXXXXXXXX .     ",
"       .                  .     ",
"       .                 .      ",
"      ....................      ",
"                                ",
"                                "};
