/* XPM */
static const char * computer_xpm[] = {
"32 32 5 1",
" 	c lightgrey s Background",
".	c black s Foreground",
"X	c darkgrey s BottomShadow",
"o	c white s TopShadow",
"O	c red s Red",
"                                ",
"                                ",
"  ........................      ",
"  .                      ..     ",
"  . XXXXXXXXXXXXXXXXXXXX .X..   ",
"  . X                  o .XXX.  ",
"  . X                  o .XXX.  ",
"  . X                  o .XXX.  ",
"  . X                  o .XXX.  ",
"  . X   XX  XXXX XXXX  o .XXX.  ",
"  . X  X  X X    X     o .XXX.  ",
"  . X  X  X XXX  XXX   o .XXX.  ",
"  . X  X  X X    X     o .XXX.  ",
"  . X   XX  X    X     o .XXX.  ",
"  . X                  o .XXX.  ",
"  . X                  o .XXX.  ",
"  . X                  o .XXX.  ",
"  . X                  o .XXX.  ",
"  . oooooooooooooooooooo .XXX.  ",
"  .                      .X..   ",
"  ............................. ",
"      ...            ....   .X. ",
"    ..  ...............   ..XX. ",
"  ..                    ..XXXX. ",
" .......................XXXXXX. ",
" .                     .XXXXXX. ",
" . ..               .  .XXXXX.. ",
" . OO              .O. .XXXX..  ",
" .                  .  .XX..    ",
" .                     ...      ",
" .......................        ",
"                                "};
