#define computer_set_width 64
#define computer_set_height 40
static unsigned char computer_set_bits[] = {
   0x00, 0x00, 0x00, 0x00, 0x00, 0x00, 0x00, 0x00, 0x00, 0x00, 0x00, 0x00,
   0xf8, 0xff, 0xff, 0x07, 0x00, 0x00, 0x00, 0x00, 0x08, 0x00, 0x00, 0x0c,
   0x00, 0x00, 0x00, 0x00, 0xe8, 0xff, 0xff, 0x35, 0x00, 0x00, 0x00, 0x00,
   0x28, 0x00, 0x00, 0x45, 0x00, 0x00, 0x00, 0x00, 0x28, 0x00, 0x00, 0x45,
   0x00, 0x00, 0xf8, 0xff, 0xff, 0x07, 0x00, 0x45, 0x00, 0x00, 0x08, 0x00,
   0x00, 0x0c, 0x00, 0x45, 0x00, 0x00, 0xe8, 0xff, 0xff, 0x35, 0x00, 0x45,
   0x00, 0x00, 0x28, 0x00, 0x00, 0x45, 0x00, 0x45, 0xfc, 0xff, 0xff, 0x03,
   0x00, 0x45, 0x00, 0x45, 0x04, 0x00, 0x00, 0x06, 0x00, 0x45, 0x00, 0x45,
   0xf4, 0xff, 0xff, 0x1a, 0x00, 0x45, 0x00, 0x45, 0x14, 0x00, 0x80, 0x22,
   0x00, 0x45, 0x00, 0x45, 0x14, 0x00, 0x80, 0x22, 0x00, 0x45, 0x00, 0x45,
   0x14, 0x00, 0x80, 0x22, 0x00, 0x45, 0x00, 0x45, 0x14, 0x00, 0x80, 0x22,
   0x00, 0x45, 0x00, 0x45, 0x14, 0x00, 0x80, 0x22, 0x00, 0xc5, 0xff, 0x45,
   0x14, 0x00, 0x80, 0x22, 0x00, 0x45, 0x00, 0x34, 0x14, 0x00, 0x80, 0x22,
   0x00, 0xc5, 0xff, 0xff, 0x14, 0x00, 0x80, 0x22, 0x00, 0x45, 0xc0, 0xa3,
   0x14, 0x00, 0x80, 0x22, 0x00, 0xc5, 0xff, 0x98, 0x14, 0x00, 0x80, 0xe2,
   0xff, 0x45, 0x00, 0x86, 0x14, 0x00, 0x80, 0x22, 0x00, 0x34, 0xff, 0x81,
   0x14, 0x00, 0x80, 0xe2, 0xff, 0xff, 0x00, 0x81, 0x14, 0x00, 0x80, 0x22,
   0xc0, 0xa3, 0x20, 0x81, 0xf4, 0xff, 0xff, 0xe2, 0xff, 0x98, 0x50, 0xe1,
   0x04, 0x00, 0x00, 0x1a, 0x00, 0x86, 0x20, 0x19, 0xfc, 0xff, 0xff, 0xff,
   0xff, 0x81, 0x00, 0x07, 0xc0, 0x01, 0xe0, 0x51, 0x00, 0x81, 0xff, 0x01,
   0x30, 0xff, 0x7f, 0x4c, 0x20, 0x81, 0x00, 0x00, 0x0c, 0x00, 0x00, 0x43,
   0x50, 0xe1, 0x00, 0x00, 0xfe, 0xff, 0xff, 0x40, 0x20, 0x19, 0x00, 0x00,
   0x02, 0x00, 0x80, 0x40, 0x00, 0x07, 0x00, 0x00, 0x1a, 0x00, 0x90, 0xc0,
   0xff, 0x01, 0x00, 0x00, 0x02, 0x00, 0xa8, 0x70, 0x00, 0x00, 0x00, 0x00,
   0x02, 0x00, 0x90, 0x0c, 0x00, 0x00, 0x00, 0x00, 0x02, 0x00, 0x80, 0x03,
   0x00, 0x00, 0x00, 0x00, 0xfe, 0xff, 0xff, 0x00, 0x00, 0x00, 0x00, 0x00,
   0x00, 0x00, 0x00, 0x00, 0x00, 0x00, 0x00, 0x00 };
