/* XPM */
static char * computer_set_xpm[] = {
"64 40 18 1",
" 	c None",
".	c lightgrey s Background",
"@	c black s Foreground",
"#	c darkgrey s BottomShadow",
"$	c #0C0C0C",
"%	c #101010",
"&	c #B4B4B4",
"*	c #111111",
"=	c #0A0A0A",
"-	c #040404",
";	c #BABABA",
">	c #626262",
",	c #0D0D0D",
"'	c #191919",
")	c #1E1E1E",
"!	c #202020",
"~	c #404040",
"{	c #303030",
"................................................................",
"...................................@@@@@@@@@@@@@@@@@@@@@@@@.....",
"...................................@......................@@....",
"...................................@.####################.@#@@..",
"...................................@.#..................#.@###@.",
"...................................@.#..................#.@###@.",
"...................@@@@@@@@@@@@@@@@@@@@@@@@.............#.@###@.",
"...................@......................@@............#.@###@.",
"...................@.####################.@#@@..........#.@###@.",
"...................@.#..................#.@###@.........#.@###@.",
"..@@@@@@@@@@@@@@@@@@@@@@@@..............#.@###@.........#.@###@.",
"..@......................@@.............#.@###@.........#.@###@.",
"..@.####################.@#@@...........#.@###@.........#.@###@.",
"..@.#..................#.@###@..........#.@###@.........#.@###@.",
"..@.#..................#.@###@..........#.@###@.........#.@###@.",
"..@.#..................#.@###@..........#.@###@.........#.@###$.",
"..@.#..................#.@###@..........#.@###@.........#.@###%.",
"..@.#..................#.@###@..........#.@###@&#########.@###@.",
"..@.#..................#.@###@..........#.@###@...........@#@@..",
"..@.#..................#.@###@..........#.@###@*@@@@@@@@@@@@@@@@",
"..@.#..................#.@###@..........#.@###=.......@@@@...@#@",
"..-.#..................#.@###@..........#.@###@@@@@@@@@@...@@##@",
"..@.#..................#.@###@&##########.@###@..........@@####@",
"..@.#..................#.@###@............@#@@;>@@@@@@@@@######@",
"..-.#..................#.@###@@@@@@@@@@@@@@@@@@@........@######@",
"..@.#..................#.@###,........@@@@...@#@.....@..@######@",
"..@.####################.@###@'@@@@@@@@@...@@##@....@#@.@####@@@",
"..@......................@#@@............@@####@.....@..@##@)...",
"..!!~{@@@@@@@@@@@@@@@@@@@@@@@@@@@@@@@@@@@######@........@@@.....",
"......@@@............@@@@...@#@.........@######@@@@@@@@@@.......",
"....-@..@@@@@@@@@@@@@@@...@@##@......@..@######@................",
"..%@....................@@####@.....@#@.@####@@@................",
".@@@@@@@@@@@@@@@@@@@@@@@######@......@..@##@)...................",
".@.....................@######@.........@@@.....................",
".@.@@...............@..@######@@@@@@@@@@@.......................",
".@.##..............@#@.@####@@@.................................",
".@..................@..@##@)....................................",
".@.....................@@@......................................",
".@@@@@@@@@@@@@@@@@@@@@@@........................................",
"................................................................"};
