/* XPM */
static const char * crate_xpm[] = {
"62 48 5 1",
" 	c lightgrey s Background",
".	c black s Foreground",
"X	c white s TopShadow",
"o	c darkgrey s BottomShadow",
"O	c red s Red",
"                                                              ",
"          ................................................... ",
"        ..  Xo    Xo     Xo      Xo      Xo     Xo   Xo  .. . ",
"      ..  Xo    Xo     Xo      Xo      Xo     Xo   Xo  ..   . ",
"    ..  Xo    Xo     Xo      Xo      Xo     Xo   Xo  ..     . ",
"  ..  Xo    Xo     Xo      Xo      Xo     Xo   Xo  ..       . ",
" ..................................................         . ",
" .                                                . o       . ",
" . XXXXXXoXXXXXXoXXXXXXoXXXXXXXXXXoXXXXXXoXXXXXXo . o       . ",
" . X     oX     oX     oX         oX     oX     o .         . ",
" . X ooX oX o o oX  o  oX ooooooX oX XXX oX ooo o .         . ",
" . X o X oX o o oX  o  oX o     X oX X o oX  o  o . o       . ",
" . X oXX oX o o oX     oX o     X oX X o oX o o o . o       . ",
" . X     oX o o oX  o  oX o     X oX ooo oX  o  o .         . ",
" . X ooX oX o o oX  o  oX XXXXXXX oX     oX     o .         . ",
" . X o X oX o o oX   o oX         oX XXX oX     o . o       . ",
" . X o X oX o o oX     oX ooooooX oX X o oX X X o . o       . ",
" . X o X oX o o oX  o  oX o     X oX ooo oX     o .         . ",
" . X o X oX o o oX  o  oX o     X oX     oX XXX o .         . ",
" . X o X oX o o oX     oX o   ooX oX ooo oX X o o . o       . ",
" . X o X oX o o oX o   oX o     X oX ooo oX ooo o . o       . ",
" . X ooo oX o o oX     oX o   o X oX ooo oX     o .         . ",
" . X     oX o o oX  o  oX o     X oX ooo oX o o o .         . ",
" . X     oX o o oX  o  oX o   o X oX ooo oX X X o . o       . ",
" . X o o oX o o oX o   oX o     X oX ooo oX o o o . o       . ",
" . X  oX oX o o oX  o  oX XXXXXXX oX ooo oX X X o .         . ",
" . X     oX o o oX  o  oX         oX ooo oX o o o .         . ",
" . X oo  oX o o oX  o  oX ooX ooX oX ooo oX X X o . o       . ",
" . X Xo  oX o o oX     oX o X o X oX     oX o o o . o       . ",
" . X   o oX     oX oo  oX o X o X oX XXo oX X X o .         . ",
" . X oX  oX ooX oX o   oX oXX oXX oX XXo oX o o o .         . ",
" . X Xo  oX  X  oX     oX         oX ooo oX X X o . o       . ",
" . X     oX  o  oX     oX ooooooX oX     oX o o o . o       . ",
" . X ooo oX  X  oX o o oX o     X oX XXo oX X X o .         . ",
" . X  o  oX oXX oX o   oX XXXXXXX oX ooo oX o o o .         . ",
" . X     oX     oX     oX         oX     oX     o . o       . ",
" . XooooooXooooooXooooooXooooooooooXooooooXoooooo . o       . ",
" .                                                .         . ",
" .oooooooooooooooooooooooooooooooooooooooooooooooo.         . ",
" .XXXXXXXXXXXXXXXXXXXXXXXXXXXXXXXXXXXXXXXXXXXXXXXX. o       . ",
" .                                                . o       . ",
" . oooX  ooooooooooooooX  ooooooooooX XXX XXX XXX .        .. ",
" . oOOX  o OO    OO O OX  o         X X o X o X o . o    ..   ",
" . oOOX  oO  O   O O O X  o         X ooo ooo ooo .    ..     ",
" . oXXX  oXXXXXXXXXXXXXX  oXXXXXXXXXX             .  ..       ",
" .                                                ...         ",
" ..................................................           ",
"                                                              "};
