/* XPM */
static const char * detector_xpm[] = {
"105 69 5 1",
" 	c lightgrey s Background",
".	c black s Foreground",
"X	c white s TopShadow",
"o	c darkgrey s BottomShadow",
"O	c red s Red",
"                                                                                                         ",
"                                                                                     ...                 ",
"                                                                                .....   .                ",
"                                                                          ......         .               ",
"                                                                     .....                .              ",
"                                                                .....                     X.             ",
"                                                           .....                      XXXXo..            ",
"                                                     ......                       XXXXooooo..            ",
"                                                .....                       XXXXXXooooo ..Oo.            ",
"                                           .....                       XXXXXoooooo      .ooO.            ",
"                                     ......                      XXXXXXooooo           ..OoO.            ",
"                                .....                       XXXXXoooooo           .....  .Oo.            ",
"                           .....                      XXXXXXooooo           ......o      .oO.            ",
"                      .....                      XXXXXoooooo          ......     Xo      .Oo.            ",
"                ......                      XXXXXooooo            ....           Xo      .oO.            ",
"           .....                       XXXXXooooo           ......               Xo      .Oo.            ",
"       ....                       XXXXXooooo           .....                     Xo      .oO.            ",
"     ..O.                    XXXXXooooo          ......                          Xo      .oO.            ",
"   ..oOoo.              XXXXXooooo           ....                       ooo      Xo      .Oo.            ",
" ..OOoooO..        XXXXXooooo          ......                     oooooo   o     Xo      .oO.            ",
" .ooooOooo.   XXXXXooooo           ....                     oooooo     .....     Xo      .oo.            ",
" .oOoooOooO.  ooooo           .....                    ooooo      .....oooo.     Xo      .OO.            ",
" .OoOoooOoO...           .....                    ooooo     ......oO.oooooo.     Xo      .Oo.            ",
" .ooooOoooo....   .......                   oooooo     .....ooooo.Oo.oooooo.     Xo      .oO.            ",
" .OooOoOooO.oo....  Xo                 ooooo      .....oooooooooo.oO.oooooo.     Xo   o......            ",
" .oooooooOo.oO.     Xo           oooooo      .....ooooooooooooooo.Oo.oooooo.     Xoooo ..Oo.             ",
" .oooOooOoO.oO.     Xo        ooo      ......ooooooooooooooooooo..OO.oooooo.    oXo    .Oo.              ",
" .oooooOooo.Oo.     Xo       o    ......oooooooooooooooooooo....X.oX.oooooo. ooo Xo    .oO.              ",
" .oOoOooOoo.oO.     Xo       .....oo.oO.ooooooooooooooo.....XXXX .XX.oooo...o    Xo ooo.Oo.              ",
" .ooooOOooo.Oo.     Xo       .oooooo.Oo.ooooooooooo....XXXXX     .XX.....oo.  oooXoo   .OoO.             ",
" .OooooooOo.Oo.     Xo       .oooooo.oO.oooooo.....XXXX          .XX.oooooo..    Xo    .Oooo...          ",
" .ooOoOoooO.oO.     Xo       .oooooo.Oo.oo....XXXXX              .XX.oooooo..    Xo     .OO..O.          ",
" .ooOoooOoo.Oo.     Xo       .oooooo.oO...XXXX                   .XX..........oooXoooooo....OoO.         ",
" .oooOoOooO.oO.     Xo       .oooooo.OX.XX                        .XX.oooooo..    Xo        .OoO.        ",
" .OOooOoOoo.OO.     Xo       .oooooo.XX.                      XXXX..XX.oooooo..    Xoo       .Oo..       ",
" .oooooooOo.oo.     Xo       .oooooo.XX.                 XXXXX....oo.oO.oooooo..    Xoo      ..OO.       ",
" .OooooOooo.Oo.     Xo       .ooo....XX.             XXXX.....ooooooo.Oo.oooooo.     Xoo      .ooO.      ",
" .oOooooooO.oO.     Xoooooooo....ooo.XXX.       XXXXX....ooooooooooooo.OO.ooooo..     Xoo      .OoO.     ",
" ..ooOoooOO....oooooXo        .oooooo.XX.   XXXX.....oooooooooooooooooo.oO..... o      Xoo      .OoO.    ",
"   .ooOoO..o.       Xo    ooo .ooooo...XX.XX....ooooooooooooooooooooooo....     o       Xo       .oO..   ",
"    .oooO.oO.       Xooooo    .ooo..ooo.XX..oooooooooooooooooooooo.....       oooo      Xoo      .Ooo.   ",
"     .oOo.Oo.   ooooXoo     oo....oooooo.oo.oooooooooooooooooo....         ooo    o      Xoo      ..OO.  ",
"     .Ooo.OO..oo    XXoooooo   ..oooooooo.Oo.oooooooooooo.....       oooooo        o      Xo    ....Oo.  ",
"     .oooOoO..       XXo       ..ooooooooo.OO.ooooooo....       ooooo              o      Xo ...ooooo... ",
"     .oooO.Oo.    ooo Xoo       ..ooooooooo.oO.oo....      ooooo                    o     ....oooo...  . ",
"     .OoooO.oO.ooo     Xoo       ..ooooooooo.....     ooooo                       ........ooooo....    . ",
"     .ooOoO.....       XXoo      ..ooooo....     ooooo                       .....   .oooooo...        . ",
"      .Oooo.oO. .       XXoo       .....     oooo                       .....        .o.....           . ",
"       oOoO.oo. .        XXoo      o    ooooo                     ......             .o.               . ",
"      .oooO.Oo.  ..       XXo       oooo                     .....                   .o.               . ",
"     .OooOo.oO.   .        Xoo       o                  .....                        .o.               . ",
"     .OoOoo.OO.    .       XXoo       o            .....                             .o.               . ",
"     .ooooo.Oo.    ..       XXoo       o      .....                                  .o.             ..  ",
"     .OoooO.oo.     .        XXo        ......                                     .....            .    ",
"      .oOoo.OO.      .        Xo    .....                                      ....    .         ...     ",
"      .OoOo.oO.       .       X.....   Xo                                ......        .     ....        ",
"       .OoO.Oo.       .   ......       Xo                            ....              ......            ",
"       .ooo.Oo.        ...    Xo       Xo                       .....              ....                  ",
"        .Oo.oO.        .      Xo       Xo                  .....             ......                      ",
"         .o.Oo.        .      Xo       Xo             .....             .....                            ",
"         .O.oO..       .      Xo       Xo       ......             .....                                 ",
"          ..Oo.o.      .      Xo       Xo  .....              .....                                      ",
"          ..oo.oo.     .      Xo    .......              .....                                           ",
"           ........    .      .. ...                .....                                                ",
"                  .    .  .... ..              .....                                                     ",
"                   .  ....      .         .....                                                          ",
"                   ...          .    .....                                                               ",
"                                 ....                                                                    ",
"                                                                                                         "};
