/* XPM */
static const char * environment_xpm[] = {
"32 32 4 1",
" 	c lightgrey s Background",
".	c black s Foreground",
"X	c darkgrey s BottomShadow",
"o	c white s TopShadow",
"                                ",
" ...   .. ..... ..       . . X  ",
" .  . .  .  .  .  . ...  .o.oX  ",
" .  . .  .  .  .  .  ooo  o o   ",
" .  . ....  .  .... ...X      XX",
" .  . .  .  .  .  .  ooo     X  ",
" ...  .  .  .  .  .        X   X",
"    XX                    Xo    ",
" X   X          XXXXoo   Xo     ",
"X                XXXXoo Xo     X",
"    X    X   X    XXXooXo     X ",
" XX XX       X     XXXXoo  X    ",
"  X     X   XXX    XXXXoo  X   X",
"  X     X     X     XXXXoo XX X ",
"X       XX    X    XoXXXXoo X  X",
"X             X   Xo  XXXoo     ",
"XX    X          Xo    XXXoo    ",
"      X   X     Xo     XXXXoo  X",
"    X X   X X  Xo       XXXXooX ",
" XX  XX   X                     ",
"    X                           ",
"                  X             ",
"        XXXXXXX   XXX XX      XX",
" X       X X  X    X   X      X ",
" X            X        X   X    ",
" X  XXX      XX XXXXX    XXX    ",
" XX X X   XX  X X    XXX X X    ",
"      XX  X X XX  XX     XXXX  X",
" X    X   XX  X    X   X        ",
" XX       X   X        X    . . ",
"  X XXX   X   XX       X    .o.o",
"          X       X          o o"};
