/* XPM */
static const char * hw_system_xpm[] = {
"96 59 7 1",
" 	c white s TopShadow",
".	c darkgrey s BottomShadow",
"X	c lightgrey s Background",
"o	c black s Foreground",
"O	c yellow s Yellow",
"+	c green s Green",
"@	c red s Red",
"                             .XXXXXXXXXXXXX                                  .XXXXXXXXXXXXXXXXXX",
" XXXXXXXXXXXXXXXXXXXXXXXooXXX.XXXXXXXXXXXXX XXXXXXXXXXXXXXXXXXXXXXXXXXXXXXXXX.XXXXXXXXXXXXXXXXXX",
" XXXXXXXXXXXXXXXXXXXXXooXoXoX.XXXXXXXXXXXXX XXXooooooooooooooooooooooooXXXXXX.XXXXXXXXXXXXXXXXXX",
" XXXXXXXXXXXXXXXXXXXooXXXoooXXXXXXXXXXXXXXX XXXoXXXXXXXXXXXXXXXXXXXXXXooXXXXX.XXXXXXXXXXXXXXXXXX",
" XXXXX                             .XXXXXXX XXXoX....................XXXXXXXX.XXXXXXXXXXXXXXXXXX",
" XXXXX XXXXXXXXXXXXXXXXXXXXXXXooXXX.XXXXXXX XXXoX.                                 .XXXXXXXXXXXX",
" XXXXX XXXXXXXXXXXXXXXXXXXXXooXoXoX.XXXXXXX XXXoX. XXXXXXXXXXXXXXXXXXXXXXXXXXXXXXXX.XXXXXXXXXXXX",
" XXXXX XXXXXXXXXXXXXXXXXXXooXXXoooX.XXXXXXX XXXoX. XXooooooooooooooooooooooooXXXXXX.XXXXXXXXXXXX",
" XXXXX XXXXXXXXXXXXXXXXXooXXXooOOoX.XXXXXXX XXXoX. XXoXXXXXXXXXXXXXXXXXXXXXXooXXXXX.XXXXXXXXXXXX",
" XXXXX XXXXXXXXXXXXXXXooXXXXXoO..oXXXXXXXXX XXXoX. XXoX....................Xo.ooXXX.XXXXXXXXXXXX",
" Xoooo XXXXX                             .X XXXoX. XXoX.XXXXXXXXXXXXXXXXXX.XXXXXXXX.XXXXXXXXXXXX",
" XoXXX XXXXX XXXXXXXXXXXXXXXXXXXXXXXooXXX.X XXXoX. XXoX.                                 .XXXXXX",
" XoX.. XXXXX XXXXXXXXXXXXXXXXXXXXXooXoXoX.X XXXoX. XXoX. XXXXXXXXXXXXXXXXXXXXXXXXXXXXXXXX.XXXXXX",
" XoX.+ XXXXX XXXXXXXXXXXXXXXXXXXooXXXoooX.X XXXoX. XXoX. XXooooooooooooooooooooooooXXXXXX.XXXXXX",
" XoX.X Xoooo XXXXXXXXXXXXXXXXXooXXXooOOoX.X XXXoX. XXoX. XXoXXXXXXXXXXXXXXXXXXXXXXooXXXXX.XXXXXX",
" XoX.X XoXXX XXXXXXXXXXXXXXXooXXX..oO..oX.X XXXoX. XXoX. XXoX....................Xo.ooXXX.XXXXXX",
" XoX.X XoX.. XXXXXXXXXXXXXooXXX.X..o...oX.X XXXoX. XXoX. XXoX.XXXXXXXXoXXXXXXoXX.Xo...oXX.XXXXXX",
" XoX.X XoX.+ XXXXXXXXXXXoo.oX...X..o.OOoX.X XXXoX. XXoX. XXoX.XX.XooXXoX+XXoXoXX.Xo...oXX.XXXXXX",
" XoX.+ XoX.X XXXXXXXXXoo...oX...X..oO..oX.X XXXoX. XXoX. XXoX.XXXXXXXXXXXXXXXXXXXXXXXXXXX.XXXXXX",
" XoXXX XoX.X XXXXXXXoo.....oX...X..o...oX.X XXXoXX XXoX. XXoX.                                 .",
" XoXXX XoX.X Xooooooooo....oX...X..o.OOoX.X XXXooo XXoX. XXoX. XXXXXXXXXXXXXXXXXXXXXXXXXXXXXXXX.",
" XoX.. XoX.X XoXXXXXXXo....oX...X..oO..oX.X XXXXXX XXoX. XXoX. XXooooooooooooooooooooooooXXXXXX.",
" XoX.+ XoX.+ XoX.....Xo....oX...X..o...oX.X XXXXXo XXoX. XXoX. XXoXXXXXXXXXXXXXXXXXXXXXXooXXXXX.",
" XoX.X XoXXX XoX.+X+ Xo....oX...X..o.OOoX.X XXXooX XXoX. XXoX. XXoX....................Xo.ooXXX.",
" XoXXX XoXXX XoX.X+X Xo...ooX...X.XoO..oX.X XXoooo XXoXX XXoX. XXoX.XXXXXXXXoXXXXXXoXX.Xo...oXX.",
" XoX.. XoX.. XoX.XXX Xo.oo.oX..XXXXo...oX.X XXoXXX XXooo XXoX. XXoX.X .XooXXoX+ XoXoXX.Xo...oXX.",
" XoX.X XoX.+ XoX.X+X Xoo...oX.XXX..o.OOoX.X XXoXoo XXXXX XXoX. XXoX.XXXXXXXXoXXXXXXo@@.Xo...oXX.",
" XoXXX XoX.X XoX.XX+ Xo....oXXXXX..oO..oX.X XXoX++ XXXXo XXoX. XXoX.X.XoX++XoXo @XXoXX.Xo...oXX.",
" XoX . XoXXX XoX.+XX Xo....oXX..X..o...oX.X XXoXXX XXooX XXoX. XXoX.XXXXXXXXoXXXXXXo@@.Xo...oXX.",
" XoX.. XoX.. XoX     Xo....oX...X..o.OOoX.X XXoXXX Xoooo XXoX. XXoX.oooooooooX +XoXoXX.Xo...oXX.",
" XoXXX XoX.X XoXXXXXXXo....oX...X..oO..oX.X XXoooo XoXXX XXoXX XXoX.XXXXXXXXoXXXXXXo@@.Xo...oXX.",
" XoX . XoXXX XoX..X..Xo....oX...X..o...oX.X XXXXXX XoXoo XXooo XXoX.X+X X+XXoX  XoXoXX.Xo...oXX.",
" XoX.. XoX . XoX.+X. Xo...ooX...X..o.OOoX.X ...... XoX++ XXXXX XXoX.XXXXXXXXoXXXXXXo+..Xo...oXX.",
" XoXXX XoX.. XoX. X.+Xo.oo.oX...X..oOooXX.XXXXXXXX XoXXX XXXXo XXoX.X+XoXoXXoXoX@oXo+..Xo...oXX.",
" XoX+. XoXXX XoXXXXXXXoo...oX...X.XoooXXX.XXXXXXXX XoXXX XXooX XXoX.XXXXXXXXoXXXXXXo.+.Xo...oXX.",
" XoX.. XoX . XoX..X..Xo....oX...XXXXXoXXX.XXXXXXXX Xoooo Xoooo XXoX.oooooooooooooooo.+.Xo...oXX.",
" XoXXX XoX.. XoX. X.@Xo....oX...XXXXooXXX.XXXXXXXX XXXXX XoXXX XXoX.XXXXXXXXXXXXXXXX...Xo...oXX.",
" XoX@. XoXXX XoXXXXXXXo....oX.XXXXooXoXXX.XXXXXXXX...... XoXoo XXoX....................Xo...oXX.",
" XoX.. XoX+. XoX .X .Xo....oXXXXooXXXoXXX.XXXXXXXXXXXXXX XoX++ XXoXXXXXXXXXXXXXXXXXXXXXXo.ooXXX.",
" XoXXX XoX.. XoX..X..Xo....oXXooXXX XoXXX.XXXXXXXXXXXXXX XoXXX XXoooooooooooooooooooooooooooooX.",
" XoX+X XoXXX XoXXXXXXXo....oooXXX  OXoXXX.XXXXXXXXXXXXXX XoXXX XXXXXXoooXXXXXXXXXXXXooooXXXo.oX.",
" XoXXX XoX@. XoX .X+.Xo...ooXXXX O..XoXXX.XXXXXXXXXXXXXX Xoooo XXXXooXXoooooooooooooooXXXoo..oX.",
" XoX.. XoX.. XoX..X..Xo.ooXXX.+X XX.XoXXX.XXXXXXXXXXXXXX XXXXX XXooXXXXXXXXXXXXXXXXXXXXoo....oX.",
" XoX.@ XoXXX XoXXXXXXXooXX.X+..X .+.XoXXX.XXXXXXXXXXXXXX...... Xooooooooooooooooooooooo......oX.",
" XoXXX XoX+X XoX+.X@.XoX...X..XX OXOXoXXX.XXXXXXXXXXXXXXXXXXXX XoXXXXXXXXXXXXXXXXXXXXXo......oX.",
" XoXXX XoXXX XoX..X..XoX. +X.XXX ..XXoXXX.XXXXXXXXXXXXXXXXXXXX XoXooXXXXXXXXXXXXXXXoXXo......oX.",
" Xoooo XoX.. XoXXXXXXXoX. .XXX.X XXXooXXX.XXXXXXXXXXXXXXXXXXXX XoX++XXXXXXXXXXXXXXo@oXo....oooX.",
" XXXXX XoX.@ XoX@.X+.XoX.+.X..+XXXooXXXXX.XXXXXXXXXXXXXXXXXXXX XoXXXXXXXXXXXXXXXXXXoXXo..ooXXXX.",
"...... XoXXX XoX..X..XoX. .X..XXooXXXXXXX.XXXXXXXXXXXXXXXXXXXX XoXXXXXXXXXXXXXXXXXXXXXoooXXXXXX.",
"XXXXXX XoXXX XoXXXXXXXoX+..XXXooXXXXXXXXX.XXXXXXXXXXXXXXXXXXXX XoooooooooooooooooooooooXXXXXXXX.",
"XXXXXX Xoooo XoX+X+X+XoX.XXXooXXXXXXXXXXX.XXXXXXXXXXXXXXXXXXXX XXXXXXXXXXXXXXXXXXXXXXXXXXXXXXXX.",
"XXXXXX XXXXX XoXXXXXXXoXXXooXXXXXXXXXXXXX.XXXXXXXXXXXXXXXXXXXX..................................",
"XXXXXX...... XoX.....XoXooXXXXXXXXXXXXXXX.XXXXXXXXXXXXXXXXXXXXXXXXXXXXXXXXXXXXXXXXXXXXXXXXXXXXXX",
"XXXXXXXXXXXX XoX.@@@ XooXXXXXXXXXXXXXXXXX.XXXXXXXXXXXXXXXXXXXXXXXXXXXXXXXXXXXXXXXXXXXXXXXXXXXXXX",
"XXXXXXXXXXXX XoX     XoXXXXXXXXXXXXXXXXXX.XXXXXXXXXXXXXXXXXXXXXXXXXXXXXXXXXXXXXXXXXXXXXXXXXXXXXX",
"XXXXXXXXXXXX XoXXXXXXXoXXXXXXXXXXXXXXXXXX.XXXXXXXXXXXXXXXXXXXXXXXXXXXXXXXXXXXXXXXXXXXXXXXXXXXXXX",
"XXXXXXXXXXXX XoooooooooXXXXXXXXXXXXXXXXXX.XXXXXXXXXXXXXXXXXXXXXXXXXXXXXXXXXXXXXXXXXXXXXXXXXXXXXX",
"XXXXXXXXXXXX XXXXXXXXXXXXXXXXXXXXXXXXXXXX.XXXXXXXXXXXXXXXXXXXXXXXXXXXXXXXXXXXXXXXXXXXXXXXXXXXXXX",
"XXXXXXXXXXXX .............................XXXXXXXXXXXXXXXXXXXXXXXXXXXXXXXXXXXXXXXXXXXXXXXXXXXXXX"};
