/* XPM */
static const char * io_device_xpm[] = {
"46 35 6 1",
" 	c lightgrey s Background",
".	c darkgrey s BottomShadow",
"X	c black s Foreground",
"o	c red s Red",
"O	c yellow s Yellow",
"+	c green s Green",
"                    ..                        ",
"                  .. .                        ",
"                ..   .                        ",
"              ..     .                        ",
"            ..   ... .                        ",
"          ..     ... .                        ",
"       ...      .... .                        ",
"     ...        .... .                        ",
"    ..     .    ..   .                        ",
"  ..     .. .   .    .                        ",
"..      .....       XXXXXXXXXXXXXXXXXXXXXX    ",
".       ....      XX                   XX     ",
".       ..      XX   .  ..    .ooo   XX       ",
".   .  .     XXX      ...   .ooo  XXXXXXXXXXXX",
".  ..      XX  ..... ..   ...   XXOOOOOOOOXX  ",
". ...    XX  .....            XX........XX    ",
". ... XXX  ..... +++  ...  XXXOOOOOOOXXX      ",
". . XX  .....   +++ ...  XX........XX         ",
". XX                   XXOOOOOOOOXX           ",
"XXXX.XXXXXXXXXXXXXXXXXXXXXXXXXXXX             ",
".  ..      .     .   .                        ",
". ...    ..      .   .                        ",
". ...  ..   ..       .                        ",
". ...     ..    .  ...                        ",
". ...   ..    ...    .                        ",
". ...  .    ....     .                        ",
". ...     ....      ..                        ",
". ..    ...       ..                          ",
". ..  ...       ..                            ",
". .  ..      ...                              ",
". .        ..                                 ",
".       ...                                   ",
".     ..                                      ",
".  ...                                        ",
"....                                          "};
