/* XPM */
static char * jar_xpm[] = {
"32 32 105 2",
"  	g None",
". 	c darkgrey s Background",
"+ 	g #DFDFDF",
"@ 	g #C0C0C0",
"# 	c black s Foreground",
"$ 	g #161616",
"% 	g #707070",
"& 	g #D7D7D7",
"* 	g #CACACA",
"= 	g #8B8B8B",
"- 	c darkgrey s BottomShadow",
"; 	g #818181",
"> 	g #9D9D9D",
", 	c white s TopShadow",
"' 	g #C3C3C3",
") 	g #595959",
"! 	g #EBEBEB",
"~ 	g #BABABA",
"{ 	g #A0A0A0",
"] 	g #575757",
"^ 	g #AAAAAA",
"/ 	g #F5F5F5",
"( 	g #B3B3B3",
"_ 	g #F6F6F6",
": 	g #8E8E8E",
"< 	g #959595",
"[ 	g #FEFEFE",
"} 	g #E9E9E9",
"| 	g #A1A1A1",
"1 	g #C2C2C2",
"2 	g #767676",
"3 	g #F3F3F3",
"4 	g #616161",
"5 	g #B2B2B2",
"6 	g #B5B5B5",
"7 	g #F1F1F1",
"8 	g #BFBFBF",
"9 	g #E7E7E7",
"0 	g #909090",
"a 	g #FDFDFD",
"b 	g #D6D6D6",
"c 	g #AFAFAF",
"d 	g #969696",
"e 	g #6C6C6C",
"f 	g #898989",
"g 	g #E8E8E8",
"h 	g #6E6E6E",
"i 	g #D4D4D4",
"j 	g #BBBBBB",
"k 	g #F7F7F7",
"l 	g #777777",
"m 	g #C9C9C9",
"n 	g #C6C6C6",
"o 	g #D8D8D8",
"p 	g #F4F4F4",
"q 	g #656565",
"r 	g #B1B1B1",
"s 	g #B6B6B6",
"t 	g #A5A5A5",
"u 	g #797979",
"v 	g #9A9A9A",
"w 	g #D2D2D2",
"x 	g #1E1E1E",
"y 	g #B7B7B7",
"z 	g #979797",
"A 	g #DEDEDE",
"B 	g #EEEEEE",
"C 	g #C7C7C7",
"D 	g #626262",
"E 	g #4C4C4C",
"F 	g #3D3D3D",
"G 	g #A4A4A4",
"H 	g #787878",
"I 	g #6D6D6D",
"J 	g #535353",
"K 	g #D1D1D1",
"L 	g #6B6B6B",
"M 	g #6A6A6A",
"N 	g #1A1A1A",
"O 	g #BCBCBC",
"P 	g #747474",
"Q 	g #8F8F8F",
"R 	g #B0B0B0",
"S 	g #DCDCDC",
"T 	g #EDEDED",
"U 	g #4D4D4D",
"V 	g #DDDDDD",
"W 	g #838383",
"X 	g #868686",
"Y 	g #F2F2F2",
"Z 	g #D0D0D0",
"` 	g #FCFCFC",
" .	g #999999",
"..	g #C5C5C5",
"+.	g #CCCCCC",
"@.	g #5C5C5C",
"#.	g #646464",
"$.	g #BDBDBD",
"%.	g #454545",
"&.	g #9C9C9C",
"*.	g #8D8D8D",
"=.	g #585858",
"-.	g #565656",
";.	g #6F6F6F",
">.	g #DADADA",
". . . . . . . . . . . . . . . . . . . . . . . . . . . . . . . . ",
". . . . . . . . . . . . . . . . . + @ . . . . . . . . . . . . . ",
". . . # # # # # # # # # # # # # # $ % # . . . . . . . . . . . . ",
". . # # . . . . . . . . . . . . & * = . # . . . . . . . . . . . ",
". # - - # . . . . . . . . . . . . ; > . . # . . . . . . . . . . ",
". # - - # . , , , , , , , , , , ' ) ! , , . # . . . . . . . . . ",
". # - - # . . - - - - - - - ~ { ] ^ / ( ( + . # . . . . . . . . ",
". # - - # . , , , , , , , _ : ] < [ } | | } . # . . . . . . . . ",
". # # # # . . - - - - ^ 1 2 ] { 3 { 4 5 6 - - . # . . . . . . . ",
". . . . # . , , , , , 7 4 ] 8 3 2 4 9 , , , . . # . . . . . . . ",
". . . . # . . - - - - 0 ] ^ a < ] b c - - - - . # . . . . . . . ",
". . . . # . , , , , , d 4 a a ] e , , , , , , . . # . . . . . . ",
". . . . # . . - - - - f 2 a a ] ] b - - - - - - . # . . . . . . ",
". . . . # . . , , , , g h } a ; ] f a , , , , , . # . . . . . . ",
". . . . . # . - - - - - > = a i ] ] j - - - - - - . # . . . . . ",
". . . . . # . . , , , , k l m a ^ ] 6 , , , , , , . # . . . . . ",
". . . . . . # . . @ n o / p d 3 * q r - s o t u v w x . . . . . ",
". . . . . . # y % z n [ [ [ [ 3 d A [ , B C w n D E - # . . . . ",
". . . . . . C F ] v G G G G G G : H I ] v [ [ [ g E I # . . . . ",
". . . . . . . J K G G G G G G G n K g [ [ [ [ [ [ E I # . . . . ",
". . . . . . . . L D K a a a a a a 9 n g [ [ [ [ K E M # . . . . ",
". . . . . . . . N 2 E ] u H H u E E E D g [ [ 3 I E O . # . . . ",
". . . . . . . . . P v H u u u H Q R S [ [ [ g I E ~ s . # . . . ",
". . . . . . . . . 0 G a a a a a a [ [ [ [ j ] > T , , . # . . . ",
". . . . . . . . . U E D u u u H ] E u V V ~ . - - - - . # . . . ",
". . . . . . & K K S W E E E E E E W j [ [ [ , , , , , . # . . . ",
". . . . ' % X n Y a a a Z Z K S a [ [ [ [ [ [ ` . O - . # . . . ",
". . . . Q E D  ...S a a a a a a a [ [ [ [ K n t D @ . . # . . . ",
". . . . +.s @.E E E E E I H u H u H D E E E E #.1 - . # . . . . ",
". . . . . . & $.%.&.*.; =.E E E E -.@.;.W ^ >.o . . . # . . . . ",
". . . . . . . . # . . . . . . . . . . . . . . . . . # . . . . . ",
". . . . . . . # # # # # # # # # # # # # # # # # # # # . . . . . "};
