/* XPM */
static const char * kcmpci_xpm[] = {
"31 21 228 2",
"  	c None",
". 	c #8787BE",
"+ 	c #5959A5",
"@ 	c lightgrey s Background",
"# 	c #E4E4E4",
"$ 	c darkgrey s BottomShadow",
"% 	c #8C8CC0",
"& 	c black s Foreground",
"* 	c #99FE48",
"= 	c #A4FC60",
"- 	c #A2F960",
"; 	c #9FF760",
"> 	c #9DF560",
", 	c #9BF360",
"' 	c #98F160",
") 	c #96EE60",
"! 	c #93EC60",
"~ 	c #D1D1D1",
"{ 	c #ACACAC",
"] 	c #7FA36E",
"^ 	c #43D300",
"/ 	c #3FCF00",
"( 	c #3BCC00",
"_ 	c #37C800",
": 	c #3DC80C",
"< 	c #56CD30",
"[ 	c #53CA30",
"} 	c #50C730",
"| 	c #4DC530",
"1 	c #4AC230",
"2 	c #1CB000",
"3 	c #BFFD8F",
"4 	c #AFFA77",
"5 	c #C4CC60",
"6 	c #EBA260",
"7 	c #EAA160",
"8 	c #D4B360",
"9 	c #90E960",
"0 	c #B4B4B4",
"a 	c #777777",
"b 	c #4F733F",
"c 	c #33C500",
"d 	c #B6E8A7",
"e 	c #78D460",
"f 	c #75D260",
"g 	c #73CF60",
"h 	c #C6EBBF",
"i 	c #18AD00",
"j 	c #BEFB8F",
"k 	c #91F648",
"l 	c #C8B448",
"m 	c #F57530",
"n 	c #F47530",
"o 	c #DB923C",
"p 	c #8EE860",
"q 	c #A0A0A0",
"r 	c #5C5C5C",
"s 	c #3A5E2A",
"t 	c #2FC100",
"u 	c #A0E18F",
"v 	c #24B700",
"w 	c #20B300",
"x 	c #C5EABF",
"y 	c #14A900",
"z 	c #BCFA8F",
"A 	c #C7F8A7",
"B 	c #97F060",
"C 	c #95EE60",
"D 	c #92EC60",
"E 	c #8EE760",
"F 	c #BFF1A7",
"G 	c #66DB30",
"H 	c #87E160",
"I 	c #84DF60",
"J 	c #ADD1A2",
"K 	c #A3C19B",
"L 	c #AABAA6",
"M 	c #7DA174",
"N 	c #31AA1B",
"O 	c #18AC00",
"P 	c #C4E9BF",
"Q 	c #10A500",
"R 	c #BBF88F",
"S 	c #9AF260",
"T 	c #C6F7A7",
"U 	c #91EA60",
"V 	c #46D600",
"W 	c #ADEC8F",
"X 	c #63D830",
"Y 	c #85DF60",
"Z 	c #BAECA7",
"` 	c #A6E68F",
" .	c #A4E48F",
"..	c #A2E38F",
"+.	c #BCBCBC",
"@.	c #898989",
"#.	c #6D6D6D",
"$.	c #515151",
"%.	c #219110",
"&.	c #C3E8BF",
"*.	c #0CA200",
"=.	c #B9F68F",
"-.	c #98F060",
";.	c #D5F8BF",
">.	c #C3F4A7",
",.	c #D1F5BF",
"'.	c #ABEA8F",
").	c #5FD530",
"!.	c #4ACD18",
"~.	c #59D030",
"{.	c #52CA30",
"].	c #AFAFAF",
"^.	c #767676",
"/.	c #5A5A5A",
"(.	c #3D3D3D",
"_.	c #1A890B",
":.	c #C2E8BF",
"<.	c #089E00",
"[.	c #B7F58F",
"}.	c #D4F7BF",
"|.	c #B1F08F",
"1.	c #4ADA00",
"2.	c #D0F4BF",
"3.	c #A9E98F",
"4.	c #79DA54",
"5.	c #5AD030",
"6.	c #47BF30",
"7.	c #44BC30",
"8.	c #40B930",
"9.	c #3DB630",
"0.	c #2EAF24",
"a.	c #C1E7BF",
"b.	c #049B00",
"c.	c #B5F38F",
"d.	c #AEC348",
"e.	c #D3F6BF",
"f.	c #C1F2A7",
"g.	c #8CE660",
"h.	c #54D718",
"i.	c #D3EEC7",
"j.	c #5FCC33",
"k.	c #A4DD8E",
"l.	c #A5E58F",
"m.	c #A2E28F",
"n.	c #9FDF8F",
"o.	c #9DDE8F",
"p.	c #D4DDD2",
"q.	c #C1CABF",
"r.	c #B3BDB2",
"s.	c #A6AFA4",
"t.	c #A2CF9F",
"u.	c #93D48F",
"v.	c #C0E6BF",
"w.	c #019800",
"x.	c #B4F28F",
"y.	c #FF4900",
"z.	c #8BE560",
"A.	c #BEF0A7",
"B.	c #C3C3C3",
"C.	c #919191",
"D.	c #6D8A63",
"E.	c #BDBDBD",
"F.	c #8A8A8A",
"G.	c #6E6E6E",
"H.	c #525252",
"I.	c #5CA258",
"J.	c #91D38F",
"K.	c #BFE5BF",
"L.	c #009700",
"M.	c #B2F08F",
"N.	c #AEED8F",
"O.	c #686868",
"P.	c #5D6D58",
"Q.	c #A6CECF",
"R.	c #A5CECF",
"S.	c #9DD89F",
"T.	c #9ADA8F",
"U.	c #5B5B5B",
"V.	c #3E3E3E",
"W.	c #78A977",
"X.	c #6CC36B",
"Y.	c #B0EF8F",
"Z.	c #C59730",
"`.	c #C7F2B3",
" +	c #75DC48",
".+	c #5CD230",
"++	c #B3C5AD",
"@+	c #8FA289",
"#+	c #2D8812",
"$+	c #27BA00",
"%+	c #23B700",
"&+	c #3F72FF",
"*+	c #219D40",
"=+	c #35A52A",
"-+	c #24941B",
";+	c #198A14",
">+	c #0F810D",
",+	c #039002",
"'+	c #89E360",
")+	c #A2E883",
"!+	c #A8E78F",
"~+	c #59CF30",
"{+	c #CBEFBF",
"]+	c #CAEFBF",
"^+	c #2EBA0C",
"/+	c #6190EF",
"(+	c #6090EF",
"_+	c #48AF60",
":+	c #3AB430",
"<+	c #37B130",
"[+	c #34AE30",
"}+	c #30AB30",
"|+	c #C2F192",
"1+	c #DBEEA9",
"2+	c #BFE685",
"3+	c #A1E066",
"4+	c #BCE485",
"5+	c #80D746",
"6+	c #D7E8A5",
"7+	c #D7E7A5",
"8+	c #5BC927",
"9+	c #77CE46",
"0+	c #D4E8A9",
"a+	c #FFFF9A",
"b+	c #FFDD67",
"c+	c #FFE978",
"d+	c #FFF489",
"e+	c #FFD256",
". . . + @ @ @ @ @ @ @ @ @ @ @ @ @ @ @ @ @ @ @ @ @ @ @ @ @ @ @ ",
". # # + $ @ @ @ @ @ @ @ @ @ @ @ @ @ @ @ @ @ @ @ @ @ @ @ @ @ @ ",
"% . # + $ & & & & & & & & & & & & & & & & & & & & & & & & & @ ",
"@ . # + $ & * = - ; > , ' ) ! ~ { ] ^ / ( _ : < [ } | 1 2 & $ ",
"@ . # + $ & 3 4 ; 5 6 7 7 8 9 0 a b / ( _ c < d e f g h i & $ ",
"@ . # + $ & j k > l m n n o p q r s ( _ c t [ u v w 2 x y & $ ",
"@ . # + $ & z > A B C D 9 E F G H I _ c t J K L M N O P Q & $ ",
"@ . # + $ & R S T ) ! U p V W X Y Z `  ...+.@.#.$.%.y &.*.& $ ",
"@ . # + $ & =.-.;.>.9 E ,.^ '.).!.~.< {.} ].^./.(._.Q :.<.& $ ",
"@ . # + $ & [.C }.|.1.V 2./ 3.4.5.< [ } | 1 6.7.8.9.0.a.b.& $ ",
"@ . # + $ & c.d.e.f.g.h.i.j.k.l. .m.u n.o.p.q.r.s.t.u.v.w.& $ ",
"@ . # + $ & x.y.f.z.A.X B.C.D.< [ } | 1 6.E.F.G.H.I.J.K.L.& $ ",
"@ . # + $ & M.y.N.^ '.).$ O.P.m.u Q.R.S.T.].a U.V.W.X.K.L.& $ ",
"@ . # + $ & Y.Z.`. +3..+++@+#+$+%+&+&+*+y =+-+;+>+,+L.K.L.& $ ",
"@ . # + $ & N.'+)+I !+~+{+]+$+^+1 /+(+_+9.:+<+[+}+}+}+K.L.& $ ",
"@ . # + $ & |+1+2+3+4+5+6+7+8+9+0+& & & & & & & & & & & & & $ ",
"@ . # + $ & a+b+b+c+b+d+e+e+a+d+b+& $ $ $ $ $ $ $ $ $ $ $ $ $ ",
"@ . # + $ & a+b+b+c+b+d+e+e+a+d+b+& $ @ @ @ @ @ @ @ @ @ @ @ @ ",
"@ . # + $ & & & & & & & & & & & & & $ @ @ @ @ @ @ @ @ @ @ @ @ ",
"@ . + + $ @ $ $ $ $ $ $ $ $ $ $ $ $ $ @ @ @ @ @ @ @ @ @ @ @ @ ",
"@ @ $ $ $ @ @ @ @ @ @ @ @ @ @ @ @ @ @ @ @ @ @ @ @ @ @ @ @ @ @ "};
