/* XPM */
static const char * module_xpm[] = {
"28 48 7 1",
" 	c lightgrey s Background",
".	c black s Foreground",
"X	c yellow s Yellow",
"o	c darkgrey s BottomShadow",
"O	c green s Green",
"+	c white s TopShadow",
"@	c red s Red",
"                            ",
"                       ..   ",
"                     .. . . ",
"                   ..   ... ",
"                 ..   ..XX. ",
"               ..   oo.Xoo. ",
"             ..   o oo.ooo. ",
"           ..o. ooo oo.oXX. ",
"         ..ooo. ooo oo.Xoo. ",
"       ..ooooo. ooo oo.ooo. ",
" .........oooo. ooo oo.oXX. ",
" .       .oooo. ooo oo.Xoo. ",
" . ooooo .oooo. ooo oo.ooo. ",
" . oO O+ .oooo. ooo oo.oXX. ",
" . o O + .ooo.. ooo o .Xoo. ",
" . o   + .o..o. oo    .ooo. ",
" . o O + ..ooo. o   oo.oXX. ",
" . o  O+ .oooo.     oo.Xoo. ",
" . oO  + .oooo.  oo oo.ooo. ",
" . +++++ .oooo. ooo oo.oXX. ",
" .       .oooo. ooo oo.Xoo. ",
" . oo oo .oooo. ooo oo.ooo. ",
" . oO o+ .ooo.. ooo oo.oXX. ",
" . o+ oO .o..o. ooo oo.X..  ",
" .       ..ooo. ooo o ...   ",
" . oo oo .oooo. ooo     .   ",
" . o+ o@ .oooo. ooo    ..   ",
" .       .oooo. o    .. .   ",
" . +o +o .oooo.    ..   .   ",
" . oo oo .oooo.  ..   + .   ",
" .       .oooo...   ++X .   ",
" . +o Oo .ooo..    +Xoo .   ",
" . oo oo .o..   oO +  o .   ",
" .       ..  o Ooo +oOo .   ",
" . Oo @o . ooo oo  +X X .   ",
" . oo oo . o+O o   +oo  .   ",
" .       . o+o   o +   ..   ",
" . @o Oo . oOo ooO   ..     ",
" . oo oo . o+o oo  ..       ",
" .       . Ooo   ..         ",
" . O O O . o   ..           ",
" .       .   ..             ",
" . ooooo . ..               ",
" . o@@@+ ..                 ",
" . +++++ .                  ",
" .       .                  ",
" .........                  ",
"                            "};
