#define partition_width 48
#define partition_height 48
static unsigned char partition_bits[] = {
  0x00, 0x00, 0x00, 0x00, 0x00, 0x00, 0x00, 0x00, 0x00, 0x00, 0x00, 0x00,
  0x00, 0x00, 0x00, 0x00, 0x00, 0x00, 0x00, 0x00, 0x00, 0x00, 0x00, 0x00,
  0x00, 0x00, 0x70, 0x04, 0x00, 0x00, 0x00, 0x00, 0x6c, 0x1a, 0x00, 0x00,
  0x00, 0x00, 0xa3, 0x61, 0x00, 0x00, 0x00, 0xc0, 0x9b, 0xaa, 0x01, 0x00,
  0x00, 0x30, 0x11, 0x03, 0x06, 0x00, 0x00, 0xac, 0x0b, 0xad, 0x1a, 0x00,
  0x00, 0x83, 0x06, 0x3b, 0x60, 0x00, 0xc0, 0x6a, 0x03, 0xd5, 0xaa, 0x01,
  0x30, 0xe0, 0x82, 0x2a, 0x03, 0x06, 0xb0, 0x5a, 0x43, 0x35, 0xac, 0x06,
  0x60, 0xa6, 0xa6, 0x6a, 0x30, 0x03, 0x80, 0x61, 0x55, 0x55, 0xc0, 0x00,
  0x80, 0xb1, 0xb6, 0xaa, 0xc0, 0x00, 0xc0, 0x56, 0x65, 0x55, 0xb0, 0x01,
  0x40, 0xb8, 0xa6, 0x2a, 0x0c, 0x03, 0x80, 0x6b, 0x4d, 0x1d, 0xeb, 0x00,
  0x80, 0x86, 0x8b, 0xe6, 0xb0, 0x00, 0x80, 0xb8, 0x8e, 0xb3, 0x8e, 0x00,
  0x80, 0x60, 0x18, 0x0d, 0x83, 0x00, 0x80, 0x80, 0x6b, 0xeb, 0x80, 0x00,
  0x80, 0x00, 0x86, 0x30, 0x80, 0x00, 0x80, 0x28, 0xf8, 0x0f, 0x8a, 0x00,
  0x80, 0x00, 0xa0, 0x02, 0x80, 0x00, 0x80, 0xa8, 0x82, 0xa0, 0x88, 0x00,
  0x80, 0x00, 0x80, 0x00, 0x80, 0x00, 0x80, 0x28, 0x8a, 0x28, 0x88, 0x00,
  0x80, 0x00, 0x80, 0x00, 0x80, 0x00, 0x80, 0x28, 0x88, 0x28, 0x88, 0x00,
  0x80, 0x00, 0x80, 0x00, 0x80, 0x00, 0x80, 0xa8, 0x88, 0xa8, 0x8a, 0x00,
  0x80, 0x00, 0x80, 0x00, 0x80, 0x00, 0x80, 0x28, 0x8a, 0xa8, 0x80, 0x00,
  0x80, 0x00, 0x80, 0x00, 0x80, 0x00, 0x80, 0x20, 0x80, 0x28, 0x80, 0x00,
  0x80, 0x01, 0x80, 0x00, 0xc0, 0x00, 0x00, 0x06, 0x80, 0x28, 0x30, 0x00,
  0x00, 0x18, 0x80, 0x00, 0x0c, 0x00, 0x00, 0x60, 0x80, 0x00, 0x03, 0x00,
  0x00, 0x80, 0x81, 0xc0, 0x00, 0x00, 0x00, 0x00, 0x86, 0x30, 0x00, 0x00,
  0x00, 0x00, 0x98, 0x0c, 0x00, 0x00, 0x00, 0x00, 0xe0, 0x03, 0x00, 0x00,
  0x00, 0x00, 0x80, 0x00, 0x00, 0x00, 0x00, 0x00, 0x00, 0x00, 0x00, 0x00,
  };
