/* XPM */
static const char * partition_xpm[] = {
"48 48 7 1",
"  c lightgrey s Background",
". c black s Foreground",
"X c green s Green",
"o c darkgrey s BottomShadow",
"O c blue s Blue",
"+ c yellow s Yellow",
"@ c red s Red",
"                                                ",
"                                                ",
"                                                ",
"                                                ",
"                    ..X   .                     ",
"                  ..oXX  .o..                   ",
"                ..oooXXX.oooo..                 ",
"              ..OoooXXXXooooooo..               ",
"            ..ooOoooXXXX..ooooooo..             ",
"          ..oooOOooXXXXXX+@@ooooooo..           ",
"        ..oooooOOOXXXXXXX@@@@.ooooooo..         ",
"      ..ooooooOOOOXXXXXX@@@@@+..ooooooo..       ",
"    ..ooooooo.OOOOXXXXX@@@@@@@++..ooooooo..     ",
"    .oooooo..+OOOOXXXX@@@@@@@@++++..oooooo.     ",
"     ..oo..++OOOOOOXX@@@@@@@@@@+++++..oo..      ",
"       ..++++OOOOOOX@@@@@@@@@@@+++++++..        ",
"       ..+++OOOOOOOX@@@@@@@@@@@@++++++..        ",
"      ..o..+OOOOOOOXX@@@@@@@@@@+++++..oo.       ",
"      .oooo..OOOOOOXX@@@@@@@@@++++..oooo..      ",
"       ..oooo..OOOOOXX@@@@@@@+++..oooo..        ",
"       . ..oooo..OOOXXX@@@@XXX..oooo.. .        ",
"       .   ..oooo..OXXX@@@XX..oooo..   .        ",
"       .     ..oooo..XXX@X..oooo..     .        ",
"       .       ..oooo..X..oooo..       .        ",
"       .   o     ..oooo.oooo..     o   .        ",
"       .   ooo     ..o...o..     oooo  .        ",
"       .   ooooo     . . .     oooooo  .        ",
"       .   ooooooo     .     oooo  oo  .        ",
"       .   ooo ooooo   .   oooo    oo  .        ",
"       .   ooo   oooo  .   ooo     oo  .        ",
"       .   ooo     oo  .   ooo     oo  .        ",
"       .   ooo     oo  .   ooo     oo  .        ",
"       .   oooo    oo  .   ooo   oooo  .        ",
"       .   oooooo  oo  .   ooo ooooo   .        ",
"       .   oooooooooo  .   ooooooo     .        ",
"       .   ooo  ooooo  .   ooooo       .        ",
"       .   ooo    oo   .   ooo         .        ",
"       .    oo         .   ooo         .        ",
"       ..              .   ooo        ..        ",
"         ..            .   ooo      ..          ",
"           ..          .   oo     ..            ",
"             ..        .        ..              ",
"               ..      .      ..                ",
"                 ..    .    ..                  ",
"                   ..  .  ..                    ",
"                     .....                      ",
"                       .                        ",
"                                                "};
