#define resource_width 23
#define resource_height 16
static unsigned char resource_bits[] = {
  0x00, 0x00, 0x00, 0xfe, 0xff, 0x3f, 0x02, 0x00, 0x20, 0x02, 0x00, 0x20,
  0x82, 0x80, 0x20, 0x42, 0x41, 0x21, 0x22, 0x22, 0x22, 0x12, 0x14, 0x24,
  0x22, 0x22, 0x22, 0x42, 0x41, 0x21, 0x82, 0x80, 0x20, 0x02, 0x00, 0x20,
  0x02, 0x00, 0x20, 0x02, 0x00, 0x20, 0xfe, 0xff, 0x3f, 0x00, 0x00, 0x00,
  };
