#define resource_mask_width 23
#define resource_mask_height 16
static unsigned char resource_mask_bits[] = {
  0xff, 0xff, 0x7f, 0xff, 0xff, 0x7f, 0xff, 0xff, 0x7f, 0x07, 0x00, 0x70,
  0x87, 0x80, 0x70, 0xc7, 0xc1, 0x71, 0x67, 0x63, 0x73, 0x37, 0x36, 0x76,
  0x67, 0x63, 0x73, 0xc7, 0xc1, 0x71, 0x87, 0x80, 0x70, 0x07, 0x00, 0x70,
  0x07, 0x00, 0x70, 0xff, 0xff, 0x7f, 0xff, 0xff, 0x7f, 0xff, 0xff, 0x7f,
  };
