/* XPM */
static const char * rm_resource_xpm[] = {
"30 30 7 1",
"  c lightgrey s Background",
". c black s Foreground",
"X c darkgrey s BottomShadow",
"o c red s Red",
"O c white s TopShadow",
"+ c yellow s Yellow",
"@ c blue s Blue",
"  .................           ",
" ..                .          ",
".XX.             oo .         ",
".XX. OOOOOOOOOOOo++o.         ",
".XX.  @@@@@@@@@@o++o .        ",
".XX. OOOOOOOOOOo++++o.        ",
"....  @@@@@@@@@o++++o.        ",
"   . OOOOOOOOOo++++++o        ",
"   .  @@@@@@@@o++oo++o        ",
"   . OOOOOOOOo++oooo++o       ",
"   .  @@@@@@@o++oooo++o       ",
"   .  OOOOOOo+++oooo+++o      ",
"    .  @@@@@o+++oooo+++o      ",
"    .  OOOOo++++oooo++++o     ",
"     .  @@@o+++++oo+++++o     ",
"     .  OOo++++++oo++++++o    ",
"      .  @o++++++oo++++++o    ",
"       . o++++++++++++++++o   ",
"        .o+++++++oo+++++++o   ",
"        o+++++++oooo+++++++o  ",
"        o+++++++oooo+++++++o  ",
"       o+++++++++oo+++++++++o ",
"       o++++++++++++++++++++o ",
"      oooooooooooooooooooooooo",
"          . @@@@@@@@@@@@@@ .  ",
"         .  OOOOOOOOOOOOO  .  ",
"         . @@@@@@@@@@@@@@ .   ",
"         .                .   ",
"        .                .    ",
"        ..................    "};
