#define run_tag_list_width 26
#define run_tag_list_height 39
static unsigned char run_tag_list_bits[] = {
   0x80, 0xff, 0xff, 0x01, 0x80, 0x00, 0x00, 0x01, 0x80, 0x00, 0x00, 0x01,
   0x80, 0x00, 0x00, 0x01, 0x80, 0x00, 0x00, 0x01, 0x80, 0x00, 0x00, 0x01,
   0x80, 0x00, 0x00, 0x01, 0x80, 0x00, 0x00, 0x01, 0x80, 0x00, 0x00, 0x01,
   0x80, 0x00, 0x00, 0x01, 0x80, 0x00, 0x00, 0x01, 0x80, 0x00, 0x00, 0x01,
   0xff, 0xff, 0xff, 0x03, 0x81, 0x00, 0x00, 0x02, 0x81, 0xbc, 0x04, 0x02,
   0x99, 0xa4, 0x04, 0x02, 0x99, 0xbc, 0x07, 0x02, 0x99, 0x84, 0x04, 0x02,
   0x81, 0x84, 0x04, 0x02, 0x81, 0x00, 0x00, 0x02, 0xff, 0xff, 0xff, 0x03,
   0x80, 0x00, 0x00, 0x01, 0x80, 0x00, 0x00, 0x01, 0x80, 0x00, 0x00, 0x01,
   0x80, 0x00, 0x00, 0x01, 0x80, 0x00, 0x00, 0x01, 0x80, 0x00, 0x00, 0x01,
   0x80, 0x00, 0x00, 0x01, 0x80, 0x00, 0x00, 0x01, 0x80, 0x00, 0x00, 0x01,
   0x80, 0x00, 0x00, 0x01, 0x80, 0x00, 0x00, 0x01, 0x80, 0x00, 0x00, 0x01,
   0x80, 0x00, 0x00, 0x01, 0x80, 0x00, 0x00, 0x01, 0x80, 0x00, 0x00, 0x01,
   0x80, 0x00, 0x00, 0x01, 0x80, 0x00, 0x00, 0x01, 0x80, 0xff, 0xff, 0x01 };
