/* XPM */
static char * run_tag_list_xpm[] = {
"26 39 5 1",
" 	c None",
".	c lightgrey s Background",
"+	c white s TopShadow",
"@	c darkgrey s BottomShadow",
"#	c black s Foreground",
".......+++++++++++++++++@.",
".......+................@.",
".......+................@.",
".......+................@.",
".......+................@.",
".......+................@.",
".......+@@@@@@@@@@@@@@@@@.",
".......+................@.",
".......+................@.",
".......+................@.",
".......+................@.",
".......+................@.",
"##########################",
"#......#+++++++++++++++++#",
"#......#+.####.#..#.....@#",
"#..+++.#+.#..#.#..#.....@#",
"#..+#@.#+.####.####.....@#",
"#..@@@.#+.#....#..#.....@#",
"#......#+.#....#..#.....@#",
"#......#@@@@@@@@@@@@@@@@@#",
"##########################",
".......+................@.",
".......+................@.",
".......+................@.",
".......+................@.",
".......+................@.",
".......+@@@@@@@@@@@@@@@@@.",
".......+................@.",
".......+................@.",
".......+................@.",
".......+................@.",
".......+................@.",
".......+@@@@@@@@@@@@@@@@@.",
".......+................@.",
".......+................@.",
".......+................@.",
".......+................@.",
".......+................@.",
".......@@@@@@@@@@@@@@@@@@."};
