/* XPM */
static const char *script_xpm[] = {
"32 32 4 1",
"  c lightgrey s Background",
". c black s Foreground",
"X c darkgrey s BottomShadow",
"o c white s TopShadow",
"  .................             ",
" ..                .            ",
".XX.                .           ",
".XX. ooooooooooooo  . ooooooo   ",
".XX.  XXXXXXXXXXXXXooo  oooooooo",
".XX. oooooooooo   oo   o    ooo ",
"....  XXXXXXXXXXoo   o    oo    ",
"   . oooooooo  o   o     o      ",
"   .  XXXXXXXXo   o    oo       ",
"   . oooooo  oo  o    o         ",
"   .  XXXXXXo o o oooo          ",
"   .  ooo  o   o    o .         ",
"    .  XXX o  o    o  .         ",
"    .  oo  o o    oo   .        ",
"     .  XX o o oooo    .        ",
"     .  oo oo    o  ooo .       ",
"      .     ooooo    XXX.       ",
"       .    o       ooo  .      ",
"        .  oo        XXX  .     ",
"        .  o    oooooooo   .    ",
"    ...........  XXXXXXXX  .    ",
"    ........... ooooooooo  .    ",
"     .........   XXXXXXXXX .    ",
"     .........  oooooooooo .    ",
"    ...o.......  XXXXXXXXXX.    ",
"   ...o......... oooooooo  .    ",
"   .............  XXXXXXXX.     ",
"   ...o.........          .     ",
"   .............         .      ",
"   .......................      ",
"   .............                ",
"                                "};
