/* XPM */
static char * segment_xpm[] = {
"48 40 5 1",
"  c lightgrey s Background",
". c black s Foreground",
"X c red s Red",
"o c green s Green",
"O c darkgrey s BottomShadow",
"                                                ",
"              ................................. ",
"            ..                              ... ",
"          ..                              ..  . ",
"        ..                              ..    . ",
"      ..                              ..      . ",
"    ..                              ..        . ",
"  ..                              ..          . ",
" .................................            . ",
" .                               .            . ",
" . ...................           .            . ",
" . .                 .  ..   ..  .            . ",
" . .       ..        . .Xo. .Oo. .            . ",
" . .       ..        . .oX. .oO. .            . ",
" . .                 .  ..   ..  .            . ",
" . ...................           .            . ",
" .                               .            . ",
" . ............................. .            . ",
" . .                           . .            . ",
" . .            ..             . .            . ",
" . .            ..             . .            . ",
" . .                           . .            . ",
" . ............................. .            . ",
" .                               .            . ",
" . ............................. .            . ",
" . .                           . .            . ",
" . .            ..             . .            . ",
" . .            ..             . .            . ",
" . .                           . .            . ",
" . ............................. .            . ",
" .                               .            . ",
" . ............................. .          ..  ",
" . .                           . .        ..    ",
" . .            ..             . .      ..      ",
" . .                           . .    ..        ",
" . ............................. .  ..          ",
" .                               ...            ",
" .................................              ",
"                                                ",
"                                                "};
