#define sw_repository_width 64
#define sw_repository_height 48
static unsigned char sw_repository_bits[] = {
  0x00, 0x00, 0x80, 0xff, 0xff, 0x01, 0x00, 0x00, 0x00, 0x80, 0x7f, 0x00,
  0x00, 0xfe, 0x01, 0x00, 0x00, 0x7c, 0x00, 0x00, 0x00, 0x00, 0x3e, 0x00,
  0x80, 0x03, 0x00, 0x00, 0x00, 0x00, 0xc0, 0x01, 0x70, 0x00, 0x00, 0x00,
  0x00, 0x00, 0x00, 0x0e, 0x08, 0x00, 0x00, 0x00, 0x00, 0x00, 0x00, 0x10,
  0x06, 0x00, 0x00, 0x00, 0x00, 0x00, 0x00, 0x60, 0x02, 0x00, 0x00, 0x00,
  0x00, 0x00, 0x00, 0x40, 0x81, 0xff, 0xff, 0x00, 0x00, 0x00, 0x00, 0x80,
  0xc1, 0x00, 0x00, 0x01, 0x00, 0x00, 0x00, 0x80, 0x23, 0x01, 0x00, 0x02,
  0x00, 0x00, 0x00, 0xc0, 0x27, 0x01, 0x00, 0x02, 0x00, 0x00, 0x00, 0xe0,
  0x29, 0x01, 0x00, 0x04, 0x00, 0x00, 0x00, 0x90, 0x31, 0x01, 0x00, 0xf4,
  0xff, 0x1f, 0x00, 0x8c, 0xe1, 0x01, 0x00, 0x1c, 0x00, 0x20, 0xc0, 0x83,
  0x01, 0x01, 0x00, 0x24, 0x00, 0x40, 0x3e, 0x80, 0x01, 0x01, 0x00, 0x24,
  0x00, 0xc0, 0x01, 0x80, 0x01, 0x01, 0x00, 0x24, 0x00, 0x80, 0x00, 0x80,
  0x01, 0x01, 0x00, 0x24, 0x00, 0x80, 0x00, 0x80, 0x01, 0x01, 0x00, 0x3c,
  0x00, 0x80, 0x00, 0x80, 0x01, 0x02, 0x00, 0x20, 0x00, 0x80, 0x00, 0x80,
  0x01, 0x02, 0x00, 0x20, 0x00, 0x80, 0x00, 0x80, 0x01, 0x04, 0x00, 0x20,
  0x00, 0x80, 0x00, 0x80, 0x01, 0x04, 0x00, 0x20, 0x00, 0x80, 0x00, 0x80,
  0x01, 0x08, 0x00, 0x20, 0x00, 0x00, 0x01, 0x80, 0x01, 0x10, 0x00, 0x40,
  0x00, 0x00, 0x01, 0x80, 0x01, 0x20, 0x00, 0x40, 0x00, 0x00, 0x02, 0x80,
  0x01, 0x20, 0x00, 0x80, 0x00, 0x00, 0x02, 0x80, 0x01, 0xfe, 0x0f, 0x80,
  0x00, 0x00, 0x04, 0x80, 0x01, 0xfe, 0x0f, 0x00, 0x01, 0x00, 0x04, 0x80,
  0x01, 0xfc, 0x07, 0x00, 0x03, 0x00, 0x08, 0x80, 0x01, 0xfc, 0x07, 0x00,
  0x05, 0x00, 0x10, 0x80, 0x01, 0xee, 0x0f, 0x00, 0x05, 0x00, 0x20, 0x80,
  0x01, 0xf7, 0x1f, 0xc0, 0xff, 0x01, 0x20, 0x80, 0x01, 0xff, 0x1f, 0xc0,
  0xff, 0x01, 0x20, 0x80, 0x01, 0xf7, 0x1f, 0x80, 0xff, 0x00, 0x20, 0x80,
  0x01, 0xff, 0x1f, 0x80, 0xff, 0x00, 0x20, 0x80, 0x01, 0xff, 0xff, 0xff,
  0xfd, 0x01, 0x20, 0x80, 0x01, 0xff, 0x1f, 0xe0, 0xfe, 0x03, 0x20, 0x80,
  0x01, 0x00, 0x00, 0xe0, 0xff, 0x03, 0x10, 0x40, 0x02, 0x00, 0x00, 0xe0,
  0xfe, 0x03, 0x10, 0x40, 0x0c, 0x00, 0x00, 0xe0, 0xff, 0x03, 0x08, 0x30,
  0x10, 0x00, 0x00, 0xe0, 0xff, 0xff, 0x0f, 0x08, 0xe0, 0x00, 0x00, 0xe0,
  0xff, 0x03, 0x00, 0x06, 0x00, 0x07, 0x00, 0x00, 0x00, 0x00, 0xe0, 0x01,
  0x00, 0xf8, 0x00, 0x00, 0x00, 0x00, 0x1f, 0x00, 0x00, 0x00, 0xff, 0x00,
  0x00, 0xff, 0x00, 0x00, 0x00, 0x00, 0x00, 0xff, 0xff, 0x00, 0x00, 0x00,
  };
