/* XPM */
static const char * sw_repository_xpm[] = {
"64 48 4 1",
" c lightgrey s Background",
". c black s Foreground",
"X c darkgrey s BottomShadow",
"oc white s TopShadow",
"                       ..................                       ",
"               ........                  ........               ",
"          .....                                  .....          ",
"       ...                                            ...       ",
"    ...                                                  ...    ",
"  X.                                                        .   ",
" ..                                                          .. ",
" .                                                            . ",
".      .................                                       .",
".     ..                .                                      .",
"..   .XX.                .                                    ..",
"...  .XX. ooooooooooooo  . ooooooo                           ...",
".  . .XX.  XXXXXXXXXXXXXooo  oooooooo                       .  .",
".   ..XX. oooooooooo   oo   .................             ..   .",
".    ....  XXXXXXXXXXoo    ..                .        ....     .",
".       . oooooooo  o   o .XX.                .  .....         .",
".       .  XXXXXXXXo   o  .XX. ooooooooooooo  ..ooooooo        .",
".       . oooooo  oo  o   .XX.  XXXXXXXXXXXXXooo  oooooooo     .",
".       .  XXXXXXo o o ooo.XX. oooooooooo   oo   o    ooo      .",
".       .  ooo  o   o    o....  XXXXXXXXXXoo   o    oo         .",
".        .  XXX o  o    o    . oooooooo  o   o     o           .",
".        .  oo  o o    oo    .  XXXXXXXXo   o    oo            .",
".         .  XX o o oooo     . oooooo  oo  o    o              .",
".         .  oo oo    o  ooo .  XXXXXXo o o oooo               .",
".          .     ooooo    XXX.  ooo  o   o    o .              .",
".           .    o       ooo  .  XXX o  o    o  .              .",
".            .  oo        XXX .  oo  o o    oo   .             .",
".            .  o    oooooooooo.  XX o o oooo    .             .",
".        ...........  XXXXXXXXX.  oo oo    o  ooo .            .",
".        ........... ooooooooooo.     ooooo    XXX.            .",
".         .........   XXXXXXXXXX..    o       ooo  .           .",
".         .........  ooooooooooo. .  oo        XXX  .          .",
".        ...o.......  XXXXXXXXXX. .  o    oooooooo   .         .",
".       ...o......... oooooooo...........  XXXXXXXX  .         .",
".       .............  XXXXXXX........... ooooooooo  .         .",
".       ...o.........          .........   XXXXXXXXX .         .",
".       .............          .........  oooooooooo .         .",
".       .........................o.......  XXXXXXXXXX.         .",
".       .............        ...o......... oooooooo  .         .",
".                            .............  XXXXXXXX.         . ",
" .                           ...o.........          .         . ",
"  ..                         .............         .        ..  ",
"    .                        .......................       .    ",
"     ...                     .............               ..     ",
"        ...                                          ....       ",
"           .....                                .....           ",
"                ........                ........                ",
"                        ................                        "};
