/* XPM */
static const char * tag_xpm[] = {
"29 21 2 1",
"  c lightgrey s Background",
". c black s Foreground",
"          ....               ",
"   ........  ..              ",
" ...          ...       ...  ",
"..              ......... .. ",
".   .......                . ",
".      .                   . ",
".      .     ...    .. .   ..",
"..     .    .   .  .  ..    .",
" ..    .        .  .   .    .",
"  .    .     ....  .   .    .",
"  .    .    .   .  .   .    .",
" ..    .    .   .  .  ..    .",
" .     .     ... .  .. .    .",
" .                     .    .",
" ..       .....    .   .    .",
"  ..   ...    ..    ...    ..",
"   ....         .         .. ",
"                 ..       .  ",
"                  ...    ..  ",
"                     .. ..   ",
"                      ..     "};
