/* XPM */
static char * used_tag_xpm[] = {
"29 21 3 1",
"  c lightgrey s Background",
". c black s Foreground",
"X c blue s Blue",
"          ....               ",
"   ........  ..              ",
" ...          ...       ...  ",
"..              ......... .. ",
".   XXXXXXX                . ",
".      X                   . ",
".      X     XXX    XX X   ..",
"..     X    X   X  X  XX    .",
" ..    X        X  X   X    .",
"  .    X     XXXX  X   X    .",
"  .    X    X   X  X   X    .",
" ..    X    X   X  X  XX    .",
" .     X     XXX X  XX X    .",
" .                     X    .",
" ..       .....    X   X    .",
"  ..   ...    ..    XXX    ..",
"   ....         .         .. ",
"                 ..       .  ",
"                  ...    ..  ",
"                     .. ..   ",
"                      ..     "};
