/* XPM */
static const char * used_binary_xpm[] = {
"32 32 6 1",
"  c lightgrey s Background",
". c black s Foreground",
"X c darkgrey s BottomShadow",
"o c white s TopShadow",
"O c blue s Blue",
"+ c red s Red",
"  .................             ",
" ..                .            ",
".XX.                .           ",
".XX. ooooooooooooooo .          ",
".XX.  OOOOOOOOOOOOOOO .         ",
".XX. ooo......................  ",
"....  OO.oooooooooooooooooooX.  ",
"   . ooo.o                  X.  ",
"   .  OO.o  ++  ++  ++  ++  X.  ",
"   . ooo.o +  +  + +  +  +  X.  ",
"   .  OO.o +  +  + +  +  +  X.  ",
"   .  oo.o +  +  + +  +  +  X.  ",
"    . OO.o +  +  + +  +  +  X.  ",
"    .  o.o  ++  +++ ++  +++ X.  ",
"     .  .o                  X.  ",
"     .  .o  ++  ++  ++  ++  X.  ",
"      . .o   +   + +  +  +  X.  ",
"      . .o   +   + +  +  +  X.  ",
"       ..o   +   + +  +  +  X.  ",
"       ..o   +   + +  +  +  X.  ",
"        .o  +++ +++ ++  +++ X.  ",
"        .o                  X.  ",
"        .oXXXXXXXXXXXXXXXXXXX.  ",
"        ......................  ",
"         . OOOOOOOOOOOOOOO .    ",
"        . ooooooooooooooo  .    ",
"        . OOOOOOOOOOOOOOO .     ",
"       .                  .     ",
"       .                 .      ",
"      ....................      ",
"                                ",
"                                "};
