/* XPM */
static const char * used_detector_xpm[] = {
"105 69 7 1",
" 	c lightgrey s Background",
".	c black s Foreground",
"X	c blue s Blue",
"o	c red s Red",
"O	c green s Green",
"+	c darkgrey s BottomShadow",
"@	c yellow s Yellow",
"                                                                                                         ",
"                                                                                     ...                 ",
"                                                                                .....X X.                ",
"                                                                          ......X X X X X.               ",
"                                                                     ..... X X X X X X X X.              ",
"                                                                ..... X X X X X X X X X X X.             ",
"                                                           ..... X X X X X X X X X X X X X...            ",
"                                                     .... X X X X X X X X X X X X X X ....X..            ",
"                                                .....X X X X X X X X X X X X X X X.....X..oo.            ",
"                                           .....X X X X X X X X X X X X X X ......X X X .ooo.            ",
"                                     ......X X X X X X X X X X X X X X ..... X X X X X ..ooo.            ",
"                                ..... X X X X X X X X X X X X X X...... X X X X X .....O .oo.            ",
"                           ..... X X X X X X X X X X X X X X.....X X X X X X....... O O O.oo.            ",
"                      ..... X X X X X X X X X X X X X ......X X X X X ...... O O ..O O O .oo.            ",
"                ...... X X X X X X X X X X X X X ..... X X X X X X....O O O O O O.. O O O.oo.            ",
"           .....X X X X X X X X X X X X X X ..... X X X X X ...... O O O O O O O ..O O O .oo.            ",
"       ....X X X X X X X X X X X X X X ..... X X X X X .....O O O O O O O O O O O.. O O O.oo.            ",
"     ..o. X X X X X X X X X X X X ..... X X X X X......O O O O O O O O O O O O O ..O O O .oo.            ",
"   .ooooo. X X X X X X X X X ......X X X X X .... O O O O O O O O O O O ... O O O.. O O O.oo.            ",
" ..oooooo.. X X X X X X ..... X X X X X......O O O O O O O O O O O......   . O O ..O O O .oo.            ",
" .oooooooo.X X X X ..... X X X X X .... O O O O O O O O O O O.....     .....O O O.. O O O.oo.            ",
" .ooooooooo.X ..... X X X X X .....O O O O O O O O O O ......     .....++++. O O ..O O O .oo.            ",
" .ooooooooo... X X X X X .....O O O O O O O O O O .....     ......oo.++++++.O O O.. O O O.oo.            ",
" .ooooooooo.... X .......O O O O O O O O O O......     .....+++++.oo.++++++. O O ..O O O .oo.            ",
" .ooooooooo.oo....O ..O O O O O O O O O.....      .....++++++++++.oo.++++++.O O O.. O .......            ",
" .ooooooooo.oo.O O O.. O O O O O ......      .....+++++++++++++++.oo.++++++. O O .....O..oo.             ",
" .ooooooooo.oo. O O ..O O O O ...      ......+++++++++++++++++++..oo.++++++.O O ...OOOO.oo.              ",
" .ooooooooo.oo.O O O.. O O O .    ......++++++++++++++++++++....@.o@.++++++. ... ..OOOO.oo.              ",
" .ooooooooo.oo. O O ..O O O O.....++.oo.+++++++++++++++.....@@@@ .@@.++++.... O O..O....oo.              ",
" .ooooooooo.oo.O O O.. O O O .++++++.oo.+++++++++++....@@@@@     .@@.....++. O...... O .ooo.             ",
" .ooooooooo.oo. O O ..O O O O.++++++.oo.++++++.....@@@@          .@@.++++++.. O O.. O O.oooo...          ",
" .ooooooooo.oo.O O O.. O O O .++++++.oo.++....@@@@@              .@@.++++++..O O ..O O O.oo..o.          ",
" .ooooooooo.oo. O O ..O O O O.++++++.oo...@@@@                   .@@........................ooo.         ",
" .ooooooooo.oo.O O O.. O O O .++++++.o@.@@                        .@@.++++++.. O O.. O O O O.ooo.        ",
" .ooooooooo.oo. O O ..O O O O.++++++.@@.                      @@@@..@@.++++++.. O O...O O O O.oo..       ",
" .ooooooooo.oo.O O O.. O O O .++++++.@@.                 @@@@@....++.oo.++++++.. O O.. O O O ..oo.       ",
" .ooooooooo.oo. O O ..O O O O.+++....@@.             @@@@.....+++++++.oo.++++++.O O O.. O O O .ooo.      ",
" .ooooooooo.oo.O O O.............+++.@@@.       @@@@@....+++++++++++++.oo.+++++..O O O.O O O O .ooo.     ",
" ..oooooooo...........O O O O .++++++.@@.   @@@@.....++++++++++++++++++.oo..... . O O O.. O O O .ooo.    ",
"   .ooooo..o.O O O O.. O O...O.+++++...@@.@@....+++++++++++++++++++++++....     .. O O O.. O O O .oo..   ",
"    .oooo.oo. O O O ......O O .+++..+++.@@..++++++++++++++++++++++.....       ....O O O ..O O O O.ooo.   ",
"     .ooo.oo.O O.......O O O......++++++.oo.++++++++++++++++++....         ... O O.O O O ..O O O O..oo.  ",
"     .ooo.oo....O O O.......O O..++++++++.oo.++++++++++++.....       ...... O O O ..O O O ..O O ....oo.  ",
"     .ooo.oo.. O O O ... O O O ..+++++++++.oo.+++++++....       .....O O O O O O O . O O O.. ...X X X... ",
"     .oooo.oo.O O ... ... O O O ..+++++++++.oo.++....      .....O O O O O O O O O O . O O .... X X...X . ",
"     .ooooo.oo.... O O ..O O O O ..+++++++++.....     .....O O O O O O O O O O O O........X X X.... X X. ",
"     .ooooo.....O O O O ..O O O O..+++++....     .....O O O O O O O O O O O O.....O O. X X X...X X X X . ",
"      .oooo.oo.O.O O O O ..O O O O .....     ....O O O O O O O O O O O O.....O O O O .X.....X X X X X X. ",
"       oooo.oo. . O O O O ..O O O O.    ..... O O O O O O O O O O ......O O O O O O O. . X X X X X X X . ",
"      .oooo.oo.O ..O O O O ..O O O O.... O O O O O O O O O O ..... O O O O O O O O O .X.X X X X X X X X. ",
"     .ooooo.oo. O . O O O O ..O O O O.O O O O O O O O O ..... O O O O O O O O O O O O. . X X X X X X X . ",
"     .ooooo.oo.O O . O O O O ..O O O O.O O O O O O ..... O O O O O O O O O O O O O O .X.X X X X X X X X. ",
"     .ooooo.oo. O O.. O O O O ..O O O O.O O O ..... O O O O O O O O O O O O O O O O O. . X X X X X X...  ",
"     .ooooo.oo.O O O.O O O O O.. O O O O ..... O O O O O O O O O O O O O O O O O O....X.X X X X X X .    ",
"      .oooo.oo. O O O.O O O O ..O O ..... O O O O O O O O O O O O O O O O O O .....X X . X X X X ...     ",
"      .oooo.oo.O O O O.O O O O...... O O.O O O O O O O O O O O O O O O O ...... X X X X.X X .....        ",
"       .ooo.oo. O O O . O ......O O O O . O O O O O O O O O O O O O O....X X X X X X X ......            ",
"       .ooo.oo.O O O O ... O O . O O O O.O O O O O O O O O O O O..... X X X X X X .....                  ",
"        .oo.oo. O O O O.O O O O.O O O O . O O O O O O O O O..... X X X X X X ......                      ",
"         .o.oo.O O O O . O O O . O O O O.O O O O O O O..... X X X X X X .....                            ",
"         .o.oo..O O O O.O O O O.O O O O . O O O ...... X X X X X X .....                                 ",
"          ..oo.X.O O O . O O O . O O O O.O .....X X X X X X X .....                                      ",
"          ..oo.XX.O O O.O O O O.O O .......X X X X X X X .....                                           ",
"           ........O O . O O O.. ...X X X X X X X X .....                                                ",
"                  . O O.O .... ..X X X X X X X......                                                     ",
"                   . O....      . X X X X......                                                          ",
"                   ...          .X X .....                                                               ",
"                                 ....                                                                    ",
"                                                                                                         "};
