/* XPM */
static const char * used_application_xpm[] = {
"32 32 7 1",
"  c lightgrey s Background",
". c black s Foreground",
"X c darkgrey s BottomShadow",
"o c white s TopShadow",
"O c blue s Blue",
"+ c red s Red",
"@ c green s Green",
"  .................             ",
" ..                .            ",
".XX.                .           ",
".XX. ooooooooooooo  .           ",
".XX.  OOOOOOOOOOOOO .           ",
".XX. oooooooooooo... .          ",
"....  OOOOOOOOOO.o . .          ",
"   . oooooo.oooo.XXX. ....      ",
"   .  OOOO.o....     ...o .     ",
"   . oooo.o  X   +++    X .     ",
"   .  OOO.o X  ++XXX++X  X.     ",
"   .  ooo..X  +XX   XX+   .     ",
"    .  OOO. o+X      XX+X  .    ",
"    .  .... +XX  .@.   X+  ..   ",
"     . .o X +X  .@@@. oX+ Xoo.  ",
"     ..o  X +X   .@.   o+ X  .  ",
"      ..X X  +X       o+  X X.  ",
"       .XXX  +X   o ooo+  XXX.  ",
"        ..    ++    o++   ...   ",
"         .X   o +++++   XX.     ",
"         .oX           X  .     ",
"         .o X        ..    .    ",
"        .o  X...XXXX.OO.oo .    ",
"         . X.ooo.o  .oo... .    ",
"         ...OOOO.   .OOOO..     ",
"        .  ooooo.o .ooooo  .    ",
"        . OOOOOOO...OOOOOO.     ",
"       .                  .     ",
"       .                 .      ",
"      ....................      ",
"                                ",
"                                "};
