/* XPM */
static char * rack_xpm[] = {
"48 64 5 1",
"  c lightgrey s Background",
". c black s Foreground",
"X c darkgrey s BottomShadow",
"o c green s Green",
"O c red s Red",
"                                                ",
"            ................................... ",
"          ..                                ... ",
"        ..                                ..  . ",
"      ..                                ..    . ",
"    ..                                ..      . ",
"  ..                                ..        . ",
" ...................................          . ",
" .XXXX..    ..    ..    ..    ..   .          . ",
" .XX..    ..    ..    ..    ..    ..          . ",
" .X...............................X.          . ",
" .X.     .     .     .     .     .X.          . ",
" .X.XXXX .XXXX .XXXX .XXXX .XXXX .X.          . ",
" .X.     .     .     .     .     .X.          . ",
" .X.XXXX .XXXX .XXXX .XXXX .XXXX .X.          . ",
" .X.     .     .     .     .     .X.          . ",
" .X.XXXXX.XXXXX.XXXXX.XXXXX.XXXXX.X.          . ",
" .X.     .     .     .     .     .X.          . ",
" .X.XX   .XX   .XX   .XX   .XX   .X.          . ",
" .X.     .     .     .     .     .X.          . ",
" .X.   o .   o .     .   o .   o .X.          . ",
" .X.     .     .   o .     .     .X.          . ",
" .X.   o .     .   o .   O .   O .X.          . ",
" .X.     .   o .     .   o .     .X.          . ",
" .X.     .     .     .     .     .X.          . ",
" ...................................          . ",
" .XXXX..    ..    ..    ..    ..   .          . ",
" .XX..    ..    ..    ..    ..    ..          . ",
" .X...............................X.          . ",
" .X.     .     .     .     .     .X.          . ",
" .X.XXXX .XXXX .XXXX .XXXX .XXXX .X.          . ",
" .X.     .     .     .     .     .X.          . ",
" .X.XXXX .XXXX .XXXX .XXXX .XXXX .X.          . ",
" .X.     .     .     .     .     .X.          . ",
" .X.XXXXX.XXXXX.XXXXX.XXXXX.XXXXX.X.          . ",
" .X.     .     .     .     .     .X.          . ",
" .X.XX   .XX   .XX   .XX   .XX   .X.          . ",
" .X.     .     .     .     .     .X.          . ",
" .X.   o .   o .     .   o .   o .X.          . ",
" .X.     .     .   o .     .     .X.          . ",
" .X.   o .     .   o .   O .   O .X.          . ",
" .X.     .   o .     .   o .     .X.          . ",
" .X.     .     .     .     .     .X.          . ",
" ...................................          . ",
" .XXXX..          ..X ..           .          . ",
" .XX..           .XXX.            ..          . ",
" .X...............X...............X.          . ",
" .X.  .   .  .   .X.  .   .  .   .X.          . ",
" .X.O .oO .O .o  .X.o .   .  .   .X.          . ",
" .X.  . O .  . o .X.  . Oo.  .   .X.          . ",
" .X. O.o  . o.   .X.o .   .  .  o.X.          . ",
" .X. O.   .O . Oo.X.  .   . o. O .X.          . ",
" .X.  .Oo .  .   .X.  . o .  .   .X.          . ",
" .X. O.O  .o . o .X.  .   .  .   .X.          . ",
" .X.  .o  . O.O  .X. o.   . o.   .X.          . ",
" .X. O.   .  .   .X.  .   . o. o .X.          . ",
" .X.  . o .o . O .X.  .oO .  .   .X.          . ",
" .X.  . o .  .   .X. o.   .  .o  .X.        ..  ",
" .X.  .   . o.   .X.  .   .  .   .X.      ..    ",
" ...................................    ..      ",
" .                                 .  ..        ",
" .                                 ...          ",
" ...................................            ",
"                                                "};
