/* XPM */
static char * resource_xpm[] = {
"21 14 5 1",
"  c darkgrey s BottomShadow",
". c white s TopShadow",
"X c lightgrey s Background",
"o c red s Red",
"O c green s Green",
"                     ",
"                    .",
"  XXXXXXXXXXXXXXXXX..",
"  XXXX XXXXXXX XXXX..",
"  XXX o.XXXXX O.XXX..",
"  XX ooo.XXX OOO.XX..",
"  X ooooo.X OOOOO.X..",
"  XX ooo.XXX OOO.XX..",
"  XXX o.XXXXX O.XXX..",
"  XXXX XXXXXXX XXXX..",
"  XXXXXXXXXXXXXXXXX..",
"  XXXXXXXXXXXXXXXXX..",
" ....................",
"....................."};
