/* XPM */
static char * jar_xpm[] = {
"32 32 214 2",
"  	c None",
". 	c lightgrey s Background",
"+ 	c #E7DCDA",
"@ 	c #E1B2B2",
"# 	c black s Foreground",
"$ 	c #161615",
"% 	c #C14D4E",
"& 	c #D7D7D7",
"* 	c #F1BAB7",
"= 	c #DB6869",
"- 	c darkgrey s BottomShadow",
"; 	c #DC5A5B",
"> 	c #E0807F",
", 	c white s TopShadow",
"' 	c #FFFFFD",
") 	c #EFB1AE",
"! 	c #D12528",
"~ 	c #FAE6E0",
"{ 	c #BABAB8",
"] 	c #E68380",
"^ 	c #D12225",
"/ 	c #E8908C",
"( 	c #F6F6ED",
"_ 	c #B3B3B2",
": 	c #B3B3B3",
"< 	c #EDDAD8",
"[ 	c #FDF4ED",
"} 	c #E06B69",
"| 	c #E27571",
"1 	c #FFFFF2",
"2 	c #FAE3DB",
"3 	c #E68481",
"4 	c #E68484",
"5 	c #F9E2E1",
"6 	c #AAAAAA",
"7 	c #CEBEBA",
"8 	c #DA4B4B",
"9 	c #E6837E",
"0 	c #FDF1E4",
"a 	c #E5837F",
"b 	c #D33032",
"c 	c #E09F9D",
"d 	c #B5B5B5",
"e 	c #FBEDE9",
"f 	c #D43032",
"g 	c #EEACA3",
"h 	c #FCF1E2",
"i 	c #F9E0DB",
"j 	c #C97777",
"k 	c #E8908A",
"l 	c #FFFFEE",
"m 	c #EACEC6",
"n 	c #AFAFAF",
"o 	c #E27577",
"p 	c #FFFFEF",
"q 	c #D73E3F",
"r 	c #C76E6F",
"s 	c #FFFFF0",
"t 	c #EBCEC6",
"u 	c #F8E1DF",
"v 	c #D74143",
"w 	c #FAE3D8",
"x 	c #DC5A58",
"y 	c #DF6464",
"z 	c #FEFDFC",
"A 	c #CD8887",
"B 	c #E06765",
"C 	c #FFFFF1",
"D 	c #F4C8BE",
"E 	c #E1ABA7",
"F 	c #FDF6F0",
"G 	c #DA4C4C",
"H 	c #F1B9B2",
"I 	c #E8908B",
"J 	c #EB9F9B",
"K 	c #FFFFFE",
"L 	c #C0C0BF",
"M 	c #C3C6D2",
"N 	c #D6D8DB",
"O 	c #F6F6EE",
"P 	c #FDF1E8",
"Q 	c #E37573",
"R 	c #FDF1E6",
"S 	c #F1BAB2",
"T 	c #D13739",
"U 	c #B2B1B0",
"V 	c #B6B6B5",
"W 	c #D5D8E3",
"X 	c #9AA3CC",
"Y 	c #6876B5",
"Z 	c #8E98C4",
"` 	c #CED1DE",
" .	c #1E1E1D",
"..	c #B0B6CE",
"+.	c #5E6DAE",
"@.	c #8A95C4",
"#.	c #C0C6D9",
"$.	c #FFFFF5",
"%.	c #FFFFF4",
"&.	c #FFFFF3",
"*.	c #F7D5CC",
"=.	c #FFFFF9",
"-.	c #FFFFFC",
";.	c #EDEEF2",
">.	c #C0C6DC",
",.	c #CDD1E1",
"'.	c #C0C5DB",
").	c #4E5FA9",
"!.	c #35489E",
"~.	c #A0A7C8",
"{.	c #C5C7CF",
"].	c #2B3A80",
"^.	c #4253A4",
"/.	c #8E98C3",
"(.	c #9AA3C8",
"_.	c #99A3C8",
":.	c #818CBE",
"<.	c #6776B3",
"[.	c #5B6AAE",
"}.	c #8E98C6",
"|.	c #FFFFF8",
"1.	c #FFFFF7",
"2.	c #FFFFF6",
"3.	c #E6E8E9",
"4.	c #5C6AAB",
"5.	c #515356",
"6.	c #CDD1DD",
"7.	c #9AA2C8",
"8.	c #C0C6D8",
"9.	c #CDD1DE",
"0.	c #E6E8EA",
"a.	c #696B6E",
"b.	c #4E5FA8",
"c.	c #CCD1DC",
"d.	c #E6E8E8",
"e.	c #C0C5D9",
"f.	c #E6E8EB",
"g.	c #CCD1DE",
"h.	c #5867AB",
"i.	c #191A1D",
"j.	c #6673AE",
"k.	c #4253A3",
"l.	c #6876B3",
"m.	c #6875B2",
"n.	c #6775B2",
"o.	c #E6E8EC",
"p.	c #F3F4F0",
"q.	c #5B6AAF",
"r.	c #B4BBD5",
"s.	c #72747B",
"t.	c #8E98C2",
"u.	c #818DBD",
"v.	c #A6AFCD",
"w.	c #D9DDE3",
"x.	c #B2B9D3",
"y.	c #8F9091",
"z.	c #B3BAD6",
"A.	c #4153A4",
"B.	c #909BC7",
"C.	c #EBEDF0",
"D.	c #424B73",
"E.	c #6876B4",
"F.	c #DADDE6",
"G.	c #D9DDE6",
"H.	c #D3D3D2",
"I.	c #D6D7DB",
"J.	c #CED1DB",
"K.	c #CDD1DC",
"L.	c #D9DCE2",
"M.	c #7481B8",
"N.	c #7581B8",
"O.	c #B3BAD3",
"P.	c #FFFFFA",
"Q.	c #BFC3D2",
"R.	c #7884BA",
"S.	c #C0C5D8",
"T.	c #F3F3ED",
"U.	c #CCD0DB",
"V.	c #CCD1DA",
"W.	c #CDD1DA",
"X.	c #D9DCE0",
"Y.	c #FDFDF6",
"Z.	c #D0D3DC",
"`.	c #B8BBCB",
" +	c #838DB8",
".+	c #8D98C2",
"++	c #C0C5D7",
"@+	c #DADCE1",
"#+	c #CDD1DF",
"$+	c #C0C6DA",
"%+	c #9AA3CB",
"&+	c #4E5FAA",
"*+	c #B9BFDB",
"=+	c #CBCCD1",
"-+	c #B1B5C8",
";+	c #4859A4",
">+	c #6776B2",
",+	c #6875B3",
"'+	c #6775B3",
")+	c #5261A9",
"!+	c #BCC1D4",
"~+	c #D5D7DA",
"{+	c #B7BCCF",
"]+	c #3D4461",
"^+	c #929BBF",
"/+	c #818BB7",
"(+	c #747FB3",
"_+	c #4355A2",
":+	c #4152A2",
"<+	c #5E6CAF",
"[+	c #7581B7",
"}+	c #A1A9CB",
"|+	c #D7DAE1",
"1+	c #D8D8D7",
". . . . . . . . . . . . . . . . . . . . . . . . . . . . . . . . ",
". . . . . . . . . . . . . . . . . + @ . . . . . . . . . . . . . ",
". . . # # # # # # # # # # # # # # $ % # . . . . . . . . . . . . ",
". . # # . . . . . . . . . . . . & * = . # . . . . . . . . . . . ",
". # - - # . . . . . . . . . . . . ; > . . # . . . . . . . . . . ",
". # - - # . , , , , , , , , , ' ) ! ~ , , . # . . . . . . . . . ",
". # - - # . . - - - - - - - { ] ^ / ( _ : < . # . . . . . . . . ",
". # - - # . , , , , , , , [ } ^ | 1 2 3 4 5 . # . . . . . . . . ",
". # # # # . . - - - - 6 7 8 ^ 9 0 a b c d - - . # . . . . . . . ",
". . . . # . , , , , , e f ^ g h 8 f i , , , . . # . . . . . . . ",
". . . . # . . - - - - j ^ k l | ^ m n - - - - . # . . . . . . . ",
". . . . # . , , , , , o f p l ^ q , , , , , , . . # . . . . . . ",
". . . . # . . - - - - r 8 s p ^ ^ t - - - - - - . # . . . . . . ",
". . . . # . . , , , , u v w s x ^ y z , , , , , . # . . . . . . ",
". . . . . # . - - - - - A B C D ^ ^ E - - - - - - . # . . . . . ",
". . . . . # . . , , , , F G H C I ^ J , , K K K , . # . . . . . ",
". . . . . . # . . L M N O P Q R S T U - V W X Y Z `  .. . . . . ",
". . . . . . # ..+.@.#.$.$.%.&.R Q *.=.-.;.>.,.'.).!.~.# . . . . ",
". . . . . . {.].^./.(.(._.(._.(.:.<.[.^.}.|.1.2.3.!.4.# . . . . ",
". . . . . . . 5.6.(.7.7._._.(.(.8.9.0.2.|.|.1.$.%.!.4.# . . . . ",
". . . . . . . . a.b.c.s s s C C C d.e.f.1.|.2.$.g.!.h.# . . . . ",
". . . . . . . . i.j.!.k.l.m.n.l.!.!.!.).o.1.1.p.q.!.r.. # . . . ",
". . . . . . . . . s.t.m.l.l.l.m.u.v.w.2.1.|.o.q.!.x.V . # . . . ",
". . . . . . . . . y.(.p l l l p s 1 %.1.|.z.A.B.C.K , . # . . . ",
". . . . . . . . . D.!.).l.l.l.m.k.!.E.F.G.x.H.- - - - . # . . . ",
". . . . . . I.J.K.L.M.!.!.!.!.!.!.N.O.$.1.P.K , , , , . # . . . ",
". . . . Q.+.R.S.T.C s p U.V.W.X.s 1 &.$.2.2.1.Y.Z.`.- . # . . . ",
". . . .  +!.b..+++@+s s p p p s C 1 &.%.$.#+$+%+&+*+. . # . . . ",
". . . . =+-+;+!.!.!.!.!.[.>+l.,+l.'+b.!.!.!.!.)+!+- . # . . . . ",
". . . . . . ~+{+]+^+/+(+_+!.!.!.!.:+;+<+[+}+|+1+. . . # . . . . ",
". . . . . . . . # . . . . . . . . . . . . . . . . . # . . . . . ",
". . . . . . . # # # # # # # # # # # # # # # # # # # # . . . . . "};
