/* XPM */
static const char * used_script_xpm[] = {
"32 32 6 1",
"  c lightgrey s Background",
". c black s Foreground",
"X c darkgrey s BottomShadow",
"o c white s TopShadow",
"O c red s Red",
"+ c blue s Blue",
"  .................             ",
" ..                .            ",
".XX.                .           ",
".XX. ooooooooooooo  . OOOOOOO   ",
".XX.  +++++++++++++OOO  OOOOOOOO",
".XX. oooooooooo   OO   O    OOO ",
"....  ++++++++++OO   OO   OO    ",
"   . oooooooo  O   O     O      ",
"   .  ++++++++O   O    OO       ",
"   . oooooo  OO  O    O         ",
"   .  ++++++O O O OOOO          ",
"   .  ooo  O   O    O .         ",
"    .  +++ O  O    O  .         ",
"    .  oo  O O    OO   .        ",
"     .  ++ O O OOOO    .        ",
"     .  oo OO    O  ooo .       ",
"      .     OOOOO    +++.       ",
"       .    O       ooo  .      ",
"        .  OO        +++  .     ",
"        .  O    oooooooo   .    ",
"    ...........  ++++++++  .    ",
"    ........... ooooooooo  .    ",
"     .........   +++++++++ .    ",
"     .........  oooooooooo .    ",
"    ...o.......  ++++++++++.    ",
"   ...o......... oooooooo  .    ",
"   .............  ++++++++.     ",
"   ...o.........          .     ",
"   .............         .      ",
"   .......................      ",
"   .............                ",
"                                "};
