/* XPM */
static const char * used_computer_xpm[] = {
"32 32 6 1",
" 	c lightgrey s Background",
".	c black s Foreground",
"X	c darkgrey s BottomShadow",
"o	c white s TopShadow",
"O	c green s Green",
"+	c red s Red",
"                                ",
"                                ",
"  ........................      ",
"  .                      ..     ",
"  . XXXXXXXXXXXXXXXXXXXX .X..   ",
"  . X        .      .  X .XXX.  ",
"  . X oX ..  . Oo . .  X .XXX.  ",
"  . X        .      .++X .XXX.  ",
"  . X X . OO . .o+  .  X .XXX.  ",
"  . X        .      .++X .XXX.  ",
"  . X......... oO . .  X .XXX.  ",
"  . X        .      .++X .XXX.  ",
"  . X O o O  . oo . .  X .XXX.  ",
"  . X        .      .OXX .XXX.  ",
"  . X O . .  . . +. .OXX .XXX.  ",
"  . X        .      .XOX .XXX.  ",
"  . X................XOX .XXX.  ",
"  . X                XXX .XXX.  ",
"  . XXXXXXXXXXXXXXXXXXXX .XXX.  ",
"  .                      .X..   ",
"  ............................. ",
"      ...            ....   .X. ",
"    ..  ...............   ..XX. ",
"  ..                    ..XXXX. ",
" .......................XXXXXX. ",
" .                     .XXXXXX. ",
" . ..               .  .XXXXXX. ",
" . OO              .+. .XXXX... ",
" .                  .  .XX..    ",
" .                     ...      ",
" .......................        ",
"                                "};
