/* XPM */
static const char * used_schema_file_xpm[] = {
"30 32 5 1",
"  c lightgrey s Background",
". c black s Foreground",
"X c white s TopShadow",
"o c red s Red",
"O c darkgrey s BottomShadow",
"  ...                         ",
"  .XX..                       ",
"...oXXX..                     ",
".XO..oXXX..                   ",
".XXXO..oXXX..  ...            ",
".XXXXXO..oXXX..XXX..          ",
".X..XXXXO..oXXXXXXXX..        ",
".X.X..XXXXO..oXXXXXXX.        ",
".X.XXX..  OO.ooooXXXXX.       ",
".X.XXXX ..  O.ooooooXX.       ",
".X.. X X .  OO..o..oooo.      ",
".XXX..X  .    OO.OO..oo.      ",
".X X.X.. .       O OO.oo.     ",
".XX .   ..   .. O O OO.o.     ",
".X X.X       . ..O OOO.o.     ",
". X .       O.O O..OOO.o.     ",
".X X. ..     . O OO..O.o.     ",
".    .. ..O O..OOOOO.O.o.     ",
".     .   .. O ..OOO.O.o.     ",
".OO   . O O ..OO...O.O.o.     ",
".OOOO .. O O .OO.OO..O.o.     ",
" ..OOOO ..OOO..O.OOOOO.o.     ",
"   ..OOOOO..O.O..OOOOO.o.     ",
"     ..OOOOO..OOOOOOOO.o.     ",
"       ..OOOOOOOOOOOOO.o.     ",
"         ..OOOOOOOOOOO.o.     ",
"           ..OOOOOOOOO.o.OO   ",
"             ..OOOOOOO.o.OOOO ",
"               ..OOOOO.o.OOOOO",
"                 ..OOO.o.OOOO ",
"                   ..O.o.OO   ",
"                     ....     "};
