/* XPM */
static char * used_computer_set_xpm[] = {
"64 40 30 1",
" 	c lightgrey s Background",
"+	c black s Foreground",
"@	c darkgrey s BottomShadow",
"#	c #C2C2C2",
"$	c #E8E8E8",
"%	c #6A6A6A",
"&	c #141414",
"*	c #00FF00",
"=	c white s TopShadow",
"-	c red s Red",
";	c #97DF97",
">	c #0A0A0A",
",	c #606060",
"'	c #AAAAAA",
")	c #020202",
"!	c #1A1A1A",
"~	c #353535",
"{	c #0C0C0C",
"]	c #101010",
"^	c #B4B4B4",
"/	c #2D2D2D",
"(	c #111111",
"_	c #040404",
":	c #BABABA",
"<	c #626262",
"[	c #0D0D0D",
"}	c #191919",
"1	c #202020",
"2	c #404040",
"3	c #303030",
"                                                                ",
"                                   ++++++++++++++++++++++++     ",
"                                   +                      ++    ",
"                                   + @@@@@@@@@@@@@@@@@@@@ +@++  ",
"                                   + @        +      +  @ +@@@+ ",
"                                   + # $# %&  + *= + +  @ +@@@+ ",
"                   ++++++++++++++++++++++++   +      +--@ +@@@+ ",
"                   +                      ++; > +=-  +  @ +@@@+ ",
"                   + @@@@@@@@@@@@@@@@@@@@ +@++,      +--@ +@@@+ ",
"                   + #        +      +  @ +@@@+ =* + +  @ +@@@+ ",
"  ++++++++++++++++++++++++'>  + *= + +  @ +@@@+      +--@ +@@@+ ",
"  +                      ++   +      +--@ +@@@+ == + +  @ +@@@+ ",
"  + @@@@@@@@@@@@@@@@@@@@ +@++ + +=-  +  @ +@@@+      +*@@ +@@@+ ",
"  + @        +      +  @ +@@@+)      +--@ +@@@+ + -+ +*@@ +@@@+ ",
"  + @ =@ ++  + *= + +  @ +@@@+! =* + +  @ +@@@+      +@*@ +@@@+ ",
"  + @        +      +--@ +@@@+!      +--@ +@@@+~++++++@*@ +@@@{ ",
"  + @ @ + ** + +=-  +  @ +@@@+! == + +  @ +@@@+       @@@ +@@@] ",
"  + @        +      +--@ +@@@+!      +*@@ +@@@+^@@@@@@@@@ +@@@+ ",
"  + @+++++++++ =* + +  @ +@@@+/ + -+ +*@@ +@@@+           +@++  ",
"  + @        +      +--@ +@@@+~      +@*@ +@@@+(++++++++++++++++",
"  + @ * = *  + == + +  @ +@@@+~+++++++@*@ +@@@>       ++++   +@+",
"  _ @        +      +*@@ +@@@+        @@@ +@@@++++++++++   ++@@+",
"  + @ * + +  + + -+ +*@@ +@@@+^@@@@@@@@@@ +@@@+          ++@@@@+",
"  + @        +      +@*@ +@@@+            +@++:<+++++++++@@@@@@+",
"  _ @++++++++++++++++@*@ +@@@+++++++++++++++++++        +@@@@@@+",
"  + @                @@@ +@@@[        ++++   +@+     +  +@@@@@@+",
"  + @@@@@@@@@@@@@@@@@@@@ +@@@+}+++++++++   ++@@+    +-+ +@@@@+++",
"  +                      +@++            ++@@@@+     +  +@@++   ",
"  1123+++++++++++++++++++++++++++++++++++@@@@@@+        +++     ",
"      +++            ++++   +@+         +@@@@@@+!++++++++       ",
"    _+  +++++++++++++++   ++@@+      +  +@@@@@@+                ",
"  ]+                    ++@@@@+     +-+ +@@@@+++                ",
" +++++++++++++++++++++++@@@@@@+      +  +@@++                   ",
" +                     +@@@@@@+         +++                     ",
" + ++               +  +@@@@@@+!+++++++++                       ",
" + **              +-+ +@@@@+++                                 ",
" +                  +  +@@++                                    ",
" +                     +++                                      ",
" +++++++++++++++++++++++                                        ",
"                                                                "};
