/* XPM */
static const char * used_crate_xpm[] = {
"62 48 6 1",
" 	c lightgrey s Background",
".	c black s Foreground",
"X	c white s TopShadow",
"o	c darkgrey s BottomShadow",
"O	c green s Green",
"+	c red s Red",
"                                                              ",
"          ................................................... ",
"        ..  Xo    Xo     Xo      Xo      Xo     Xo   Xo  .. . ",
"      ..  Xo    Xo     Xo      Xo      Xo     Xo   Xo  ..   . ",
"    ..  Xo    Xo     Xo      Xo      Xo     Xo   Xo  ..     . ",
"  ..  Xo    Xo     Xo      Xo      Xo     Xo   Xo  ..       . ",
" ..................................................         . ",
" .                                                . o       . ",
" . XXXXXXoXXXXXXoXXXXXXoXXXXXXXXXXoXXXXXXoXXXXXXo . o       . ",
" . X     oX     oX     oX         oX     oX     o .         . ",
" . X ooX oX Oo+ oX OoO oX ooooooX oX XXX oX O+O o .         . ",
" . X oOX oX Oo+ oX OoO oX oO   OX oX XOo oX  O  o . o       . ",
" . X oXX oX Oo+ oX     oX oO O  X oX XOo oX O   o . o       . ",
" . X     oX Oo+ oX Oo  oX o O  OX oX ooo oX   O o .         . ",
" . X ooX oX OoO oX Oo  oX XXXXXXX oX     oX +O+ o .         . ",
" . X oOX oX Oo+ oX ++o oX         oX XXX oX     o . o       . ",
" . X oOX oX OoO oX     oX ooooooX oX X o oX X X o . o       . ",
" . X oOX oX Oo+ oX Oo  oX oOOO  X oX ooo oX     o .         . ",
" . X oOX oX Oo+ oX Oo  oX oOO   X oX     oX XXX o .         . ",
" . X o X oX +o+ oX     oX oOOO++X oX OO+ oX X o o . o       . ",
" . X o X oX +oO oX o+  oX oO    X oX OO+ oX ooo o . o       . ",
" . X ooo oX +oO oX     oX oOOO+ X oX OO+ oX     o .         . ",
" . X     oX +oO oX Oo  oX oO    X oX OO+ oX o o o .         . ",
" . X     oX +oO oX Oo  oX oOOO+ X oX OO+ oX X X o . o       . ",
" . X o o oX OoO oX o   oX oOO   X oX OO+ oX o o o . o       . ",
" . X  oX oX OoO oX  o  oX XXXXXXX oX OO+ oX X X o .         . ",
" . X     oX OoO oX Oo  oX         oX O++ oX o o o .         . ",
" . X oo  oX OoO oX Oo  oX ooX ooX oX O++ oX X X o . o       . ",
" . X Xo  oX OoO oX     oX oOX o X oX     oX o o o . o       . ",
" . X   o oX     oX ooO oX o X oOX oX XXo oX X X o .         . ",
" . X oX  oX ooX oX oO  oX oXX oXX oX XXo oX o o o .         . ",
" . X Xo  oX  X  oX O   oX         oX ooo oX X X o . o       . ",
" . X     oX  oO oX     oX ooooooX oX     oX o o o . o       . ",
" . X ooo oX  XO oX oOo oX oOO O X oX XXo oX X X o .         . ",
" . X +++ oX oXX oX oO  oX XXXXXXX oX ooo oX o o o .         . ",
" . X     oX     oX     oX         oX     oX     o . o       . ",
" . XooooooXooooooXooooooXooooooooooXooooooXoooooo . o       . ",
" .                                                .         . ",
" .oooooooooooooooooooooooooooooooooooooooooooooooo.         . ",
" .XXXXXXXXXXXXXXXXXXXXXXXXXXXXXXXXXXXXXXXXXXXXXXXX. o       . ",
" .                                                . o       . ",
" . oooX  ooooooooooooooX  ooooooooooX XXX XXX XXX .        .. ",
" . o++X  o++ +  ++ +++ X  o++ O +O OX X o X o X o . o    ..   ",
" . o++X  o+ + + + + + +X  o+OO++ OO+X ooo ooo ooo .    ..     ",
" . oXXX  oXXXXXXXXXXXXXX  oXXXXXXXXXX             .  ..       ",
" .                                                ...         ",
" ..................................................           ",
"                                                              "};
